$MeshFormat
4.1 0 8
$EndMeshFormat
$PhysicalNames
14
2 3 "bottom-box-left"
2 4 "bottom-box-right"
2 5 "bottom-box-front"
2 6 "bottom-box-back"
2 7 "bottom-box-bottom"
2 8 "bottom-box-top"
2 9 "top-box-left"
2 10 "top-box-right"
2 11 "top-box-front"
2 12 "top-box-back"
2 13 "top-box-bottom"
2 14 "top-box-top"
3 1 "bottom-box"
3 2 "top-box"
$EndPhysicalNames
$Entities
16 24 12 2
1 0 0 0.5 0 
2 0 0 0 0 
3 0 1 0.5 0 
4 0 1 0 0 
5 1 0 0.5 0 
6 1 0 0 0 
7 1 1 0.5 0 
8 1 1 0 0 
9 0 0 1 0 
10 0 0 0.5 0 
11 0 1 1 0 
12 0 1 0.5 0 
13 1 0 1 0 
14 1 0 0.5 0 
15 1 1 1 0 
16 1 1 0.5 0 
1 -1e-07 -1e-07 -9.999999997511999e-08 1e-07 1e-07 0.5000000999999999 0 2 2 -1 
2 -1e-07 -9.999999994736442e-08 0.4999999 1e-07 1.0000001 0.5000000999999999 0 2 1 -3 
3 -1e-07 0.9999999000000001 -9.999999997511999e-08 1e-07 1.0000001 0.5000000999999999 0 2 4 -3 
4 -1e-07 -9.999999994736442e-08 -1e-07 1e-07 1.0000001 1e-07 0 2 2 -4 
5 0.9999999000000001 -1e-07 -9.999999997511999e-08 1.0000001 1e-07 0.5000000999999999 0 2 6 -5 
6 0.9999999000000001 -9.999999994736442e-08 0.4999999 1.0000001 1.0000001 0.5000000999999999 0 2 5 -7 
7 0.9999999000000001 0.9999999000000001 -9.999999997511999e-08 1.0000001 1.0000001 0.5000000999999999 0 2 8 -7 
8 0.9999999000000001 -9.999999994736442e-08 -1e-07 1.0000001 1.0000001 1e-07 0 2 6 -8 
9 -9.999999994736442e-08 -1e-07 -1e-07 1.0000001 1e-07 1e-07 0 2 2 -6 
10 -9.999999994736442e-08 -1e-07 0.4999999 1.0000001 1e-07 0.5000000999999999 0 2 1 -5 
11 -9.999999994736442e-08 0.9999999000000001 -1e-07 1.0000001 1.0000001 1e-07 0 2 4 -8 
12 -9.999999994736442e-08 0.9999999000000001 0.4999999 1.0000001 1.0000001 0.5000000999999999 0 2 3 -7 
13 -1e-07 -1e-07 0.4999999 1e-07 1e-07 1.0000001 0 2 10 -9 
14 -1e-07 -9.999999994736442e-08 0.9999999000000001 1e-07 1.0000001 1.0000001 0 2 9 -11 
15 -1e-07 0.9999999000000001 0.4999999 1e-07 1.0000001 1.0000001 0 2 12 -11 
16 -1e-07 -9.999999994736442e-08 0.4999999 1e-07 1.0000001 0.5000000999999999 0 2 10 -12 
17 0.9999999000000001 -1e-07 0.4999999 1.0000001 1e-07 1.0000001 0 2 14 -13 
18 0.9999999000000001 -9.999999994736442e-08 0.9999999000000001 1.0000001 1.0000001 1.0000001 0 2 13 -15 
19 0.9999999000000001 0.9999999000000001 0.4999999 1.0000001 1.0000001 1.0000001 0 2 16 -15 
20 0.9999999000000001 -9.999999994736442e-08 0.4999999 1.0000001 1.0000001 0.5000000999999999 0 2 14 -16 
21 -9.999999994736442e-08 -1e-07 0.4999999 1.0000001 1e-07 0.5000000999999999 0 2 10 -14 
22 -9.999999994736442e-08 -1e-07 0.9999999000000001 1.0000001 1e-07 1.0000001 0 2 9 -13 
23 -9.999999994736442e-08 0.9999999000000001 0.4999999 1.0000001 1.0000001 0.5000000999999999 0 2 12 -16 
24 -9.999999994736442e-08 0.9999999000000001 0.9999999000000001 1.0000001 1.0000001 1.0000001 0 2 11 -15 
1 -1e-07 -9.999999994736442e-08 -9.999999997511999e-08 1e-07 1.0000001 0.5000000999999999 1 3 4 -1 4 3 -2 
2 0.9999999000000001 -9.999999994736442e-08 -9.999999997511999e-08 1.0000001 1.0000001 0.5000000999999999 1 4 4 -5 8 7 -6 
3 -9.999999994736442e-08 -1e-07 -9.999999997511999e-08 1.0000001 1e-07 0.5000000999999999 1 5 4 -9 1 10 -5 
4 -9.999999994736442e-08 0.9999999000000001 -9.999999997511999e-08 1.0000001 1.0000001 0.5000000999999999 1 6 4 -11 3 12 -7 
5 -9.999999994736442e-08 -9.999999994736442e-08 -1e-07 1.0000001 1.0000001 1e-07 1 7 4 -4 9 8 -11 
6 -9.999999994736442e-08 -9.999999994736442e-08 0.4999999 1.0000001 1.0000001 0.5000000999999999 1 8 4 -2 10 6 -12 
7 -1e-07 -9.999999994736442e-08 0.4999999 1e-07 1.0000001 1.0000001 1 9 4 -13 16 15 -14 
8 0.9999999000000001 -9.999999994736442e-08 0.4999999 1.0000001 1.0000001 1.0000001 1 10 4 -17 20 19 -18 
9 -9.999999994736442e-08 -1e-07 0.4999999 1.0000001 1e-07 1.0000001 1 11 4 -21 13 22 -17 
10 -9.999999994736442e-08 0.9999999000000001 0.4999999 1.0000001 1.0000001 1.0000001 1 12 4 -23 15 24 -19 
11 -9.999999994736442e-08 -9.999999994736442e-08 0.4999999 1.0000001 1.0000001 0.5000000999999999 1 13 4 -16 21 20 -23 
12 -9.999999994736442e-08 -9.999999994736442e-08 0.9999999000000001 1.0000001 1.0000001 1.0000001 1 14 4 -14 22 18 -24 
1 -9.999999994736442e-08 -9.999999994736442e-08 -9.999999997511999e-08 1.0000001 1.0000001 0.5000000999999999 1 1 6 -1 2 -3 4 -5 6 
2 -9.999999994736442e-08 -9.999999994736442e-08 0.4999999 1.0000001 1.0000001 1.0000001 1 2 6 -7 8 -9 10 -11 12 
$EndEntities
$Nodes
54 192 1 192
0 1 0 1
1
0 0 0.5
0 2 0 1
2
0 0 0
0 3 0 1
3
0 1 0.5
0 4 0 1
4
0 1 0
0 5 0 1
5
1 0 0.5
0 6 0 1
6
1 0 0
0 7 0 1
7
1 1 0.5
0 8 0 1
8
1 1 0
0 9 0 1
9
0 0 1
0 10 0 1
10
0 0 0.5
0 11 0 1
11
0 1 1
0 12 0 1
12
0 1 0.5
0 13 0 1
13
1 0 1
0 14 0 1
14
1 0 0.5
0 15 0 1
15
1 1 1
0 16 0 1
16
1 1 0.5
1 1 0 1
17
0 0 0.25
1 2 0 5
18
19
20
21
22
0 0.3333333333333333 0.5
0 0.6666666666666666 0.5
0 0.1666666666666667 0.5
0 0.5 0.5
0 0.8333333333333333 0.5
1 3 0 1
23
0 1 0.25
1 4 0 5
24
25
26
27
28
0 0.3333333333333333 0
0 0.6666666666666666 0
0 0.1666666666666667 0
0 0.5 0
0 0.8333333333333333 0
1 5 0 1
29
1 0 0.25
1 6 0 5
30
31
32
33
34
1 0.3333333333333333 0.5
1 0.6666666666666666 0.5
1 0.1666666666666667 0.5
1 0.5 0.5
1 0.8333333333333333 0.5
1 7 0 1
35
1 1 0.25
1 8 0 5
36
37
38
39
40
1 0.3333333333333333 0
1 0.6666666666666666 0
1 0.1666666666666667 0
1 0.5 0
1 0.8333333333333333 0
1 9 0 5
41
42
43
44
45
0.3333333333333333 0 0
0.6666666666666666 0 0
0.1666666666666667 0 0
0.5 0 0
0.8333333333333333 0 0
1 10 0 5
46
47
48
49
50
0.3333333333333333 0 0.5
0.6666666666666666 0 0.5
0.1666666666666667 0 0.5
0.5 0 0.5
0.8333333333333333 0 0.5
1 11 0 5
51
52
53
54
55
0.3333333333333333 1 0
0.6666666666666666 1 0
0.1666666666666667 1 0
0.5 1 0
0.8333333333333333 1 0
1 12 0 5
56
57
58
59
60
0.3333333333333333 1 0.5
0.6666666666666666 1 0.5
0.1666666666666667 1 0.5
0.5 1 0.5
0.8333333333333333 1 0.5
1 13 0 1
61
0 0 0.75
1 14 0 5
62
63
64
65
66
0 0.3333333333333333 1
0 0.6666666666666666 1
0 0.1666666666666667 1
0 0.5 1
0 0.8333333333333333 1
1 15 0 1
67
0 1 0.75
1 16 0 5
68
69
70
71
72
0 0.3333333333333333 0.5
0 0.6666666666666666 0.5
0 0.1666666666666667 0.5
0 0.5 0.5
0 0.8333333333333333 0.5
1 17 0 1
73
1 0 0.75
1 18 0 5
74
75
76
77
78
1 0.3333333333333333 1
1 0.6666666666666666 1
1 0.1666666666666667 1
1 0.5 1
1 0.8333333333333333 1
1 19 0 1
79
1 1 0.75
1 20 0 5
80
81
82
83
84
1 0.3333333333333333 0.5
1 0.6666666666666666 0.5
1 0.1666666666666667 0.5
1 0.5 0.5
1 0.8333333333333333 0.5
1 21 0 5
85
86
87
88
89
0.3333333333333333 0 0.5
0.6666666666666666 0 0.5
0.1666666666666667 0 0.5
0.5 0 0.5
0.8333333333333333 0 0.5
1 22 0 5
90
91
92
93
94
0.3333333333333333 0 1
0.6666666666666666 0 1
0.1666666666666667 0 1
0.5 0 1
0.8333333333333333 0 1
1 23 0 5
95
96
97
98
99
0.3333333333333333 1 0.5
0.6666666666666666 1 0.5
0.1666666666666667 1 0.5
0.5 1 0.5
0.8333333333333333 1 0.5
1 24 0 5
100
101
102
103
104
0.3333333333333333 1 1
0.6666666666666666 1 1
0.1666666666666667 1 1
0.5 1 1
0.8333333333333333 1 1
2 1 0 2
105
106
0 0.3333333333333333 0.25
0 0.6666666666666666 0.25
2 2 0 2
107
108
1 0.3333333333333333 0.25
1 0.6666666666666666 0.25
2 3 0 2
109
110
0.3333333333333333 0 0.25
0.6666666666666666 0 0.25
2 4 0 2
111
112
0.3333333333333333 1 0.25
0.6666666666666666 1 0.25
2 5 0 16
113
114
115
116
117
118
119
120
121
122
123
124
125
126
127
128
0.3333333333333334 0.3333333333333334 0
0.6666666666666667 0.3333333333333333 0
0.3333333333333333 0.6666666666666667 0
0.6666666666666666 0.6666666666666666 0
0.1666666666666667 0.3333333333333334 0
0.3333333333333334 0.1666666666666667 0
0.5 0.3333333333333334 0
0.6666666666666667 0.1666666666666667 0
0.8333333333333334 0.3333333333333333 0
0.1666666666666667 0.6666666666666667 0
0.3333333333333334 0.5 0
0.5 0.6666666666666667 0
0.6666666666666667 0.5 0
0.8333333333333333 0.6666666666666666 0
0.3333333333333333 0.8333333333333334 0
0.6666666666666666 0.8333333333333333 0
2 6 0 16
129
130
131
132
133
134
135
136
137
138
139
140
141
142
143
144
0.3333333333333334 0.3333333333333334 0.5
0.6666666666666667 0.3333333333333333 0.5
0.3333333333333333 0.6666666666666667 0.5
0.6666666666666666 0.6666666666666666 0.5
0.3333333333333334 0.1666666666666667 0.5
0.1666666666666667 0.3333333333333334 0.5
0.6666666666666667 0.1666666666666667 0.5
0.5 0.3333333333333334 0.5
0.8333333333333334 0.3333333333333333 0.5
0.3333333333333334 0.5 0.5
0.1666666666666667 0.6666666666666667 0.5
0.6666666666666667 0.5 0.5
0.5 0.6666666666666667 0.5
0.8333333333333333 0.6666666666666666 0.5
0.3333333333333333 0.8333333333333334 0.5
0.6666666666666666 0.8333333333333333 0.5
2 7 0 2
145
146
0 0.3333333333333333 0.75
0 0.6666666666666666 0.75
2 8 0 2
147
148
1 0.3333333333333333 0.75
1 0.6666666666666666 0.75
2 9 0 2
149
150
0.3333333333333333 0 0.75
0.6666666666666666 0 0.75
2 10 0 2
151
152
0.3333333333333333 1 0.75
0.6666666666666666 1 0.75
2 11 0 16
153
154
155
156
157
158
159
160
161
162
163
164
165
166
167
168
0.3333333333333334 0.3333333333333334 0.5
0.6666666666666667 0.3333333333333333 0.5
0.3333333333333333 0.6666666666666667 0.5
0.6666666666666666 0.6666666666666666 0.5
0.1666666666666667 0.3333333333333334 0.5
0.3333333333333334 0.1666666666666667 0.5
0.5 0.3333333333333334 0.5
0.6666666666666667 0.1666666666666667 0.5
0.8333333333333334 0.3333333333333333 0.5
0.1666666666666667 0.6666666666666667 0.5
0.3333333333333334 0.5 0.5
0.5 0.6666666666666667 0.5
0.6666666666666667 0.5 0.5
0.8333333333333333 0.6666666666666666 0.5
0.3333333333333333 0.8333333333333334 0.5
0.6666666666666666 0.8333333333333333 0.5
2 12 0 16
169
170
171
172
173
174
175
176
177
178
179
180
181
182
183
184
0.3333333333333334 0.3333333333333334 1
0.6666666666666667 0.3333333333333333 1
0.3333333333333333 0.6666666666666667 1
0.6666666666666666 0.6666666666666666 1
0.3333333333333334 0.1666666666666667 1
0.1666666666666667 0.3333333333333334 1
0.6666666666666667 0.1666666666666667 1
0.5 0.3333333333333334 1
0.8333333333333334 0.3333333333333333 1
0.3333333333333334 0.5 1
0.1666666666666667 0.6666666666666667 1
0.6666666666666667 0.5 1
0.5 0.6666666666666667 1
0.8333333333333333 0.6666666666666666 1
0.3333333333333333 0.8333333333333334 1
0.6666666666666666 0.8333333333333333 1
3 1 0 4
185
186
187
188
0.3333333333333334 0.3333333333333334 0.25
0.6666666666666667 0.3333333333333333 0.25
0.3333333333333333 0.6666666666666667 0.25
0.6666666666666666 0.6666666666666666 0.25
3 2 0 4
189
190
191
192
0.3333333333333334 0.3333333333333334 0.75
0.6666666666666667 0.3333333333333333 0.75
0.3333333333333333 0.6666666666666667 0.75
0.6666666666666666 0.6666666666666666 0.75
$EndNodes
$Elements
14 78 1 78
2 1 16 3
1 2 1 18 24 17 20 105 26 
2 24 18 19 25 105 21 106 27 
3 25 19 3 4 106 22 23 28 
2 2 16 3
4 6 36 30 5 38 107 32 29 
5 36 37 31 30 39 108 33 107 
6 37 8 7 31 40 35 34 108 
2 3 16 3
7 2 41 46 1 43 109 48 17 
8 41 42 47 46 44 110 49 109 
9 42 6 5 47 45 29 50 110 
2 4 16 3
10 4 3 56 51 23 58 111 53 
11 51 56 57 52 111 59 112 54 
12 52 57 7 8 112 60 35 55 
2 5 16 9
13 2 24 113 41 26 117 118 43 
14 41 113 114 42 118 119 120 44 
15 42 114 36 6 120 121 38 45 
16 24 25 115 113 27 122 123 117 
17 113 115 116 114 123 124 125 119 
18 114 116 37 36 125 126 39 121 
19 25 4 51 115 28 53 127 122 
20 115 51 52 116 127 54 128 124 
21 116 52 8 37 128 55 40 126 
2 6 16 9
22 1 46 129 18 48 133 134 20 
23 46 47 130 129 49 135 136 133 
24 47 5 30 130 50 32 137 135 
25 18 129 131 19 134 138 139 21 
26 129 130 132 131 136 140 141 138 
27 130 30 31 132 137 33 142 140 
28 19 131 56 3 139 143 58 22 
29 131 132 57 56 141 144 59 143 
30 132 31 7 57 142 34 60 144 
2 7 16 3
31 10 9 62 68 61 64 145 70 
32 68 62 63 69 145 65 146 71 
33 69 63 11 12 146 66 67 72 
2 8 16 3
34 14 80 74 13 82 147 76 73 
35 80 81 75 74 83 148 77 147 
36 81 16 15 75 84 79 78 148 
2 9 16 3
37 10 85 90 9 87 149 92 61 
38 85 86 91 90 88 150 93 149 
39 86 14 13 91 89 73 94 150 
2 10 16 3
40 12 11 100 95 67 102 151 97 
41 95 100 101 96 151 103 152 98 
42 96 101 15 16 152 104 79 99 
2 11 16 9
43 10 68 153 85 70 157 158 87 
44 85 153 154 86 158 159 160 88 
45 86 154 80 14 160 161 82 89 
46 68 69 155 153 71 162 163 157 
47 153 155 156 154 163 164 165 159 
48 154 156 81 80 165 166 83 161 
49 69 12 95 155 72 97 167 162 
50 155 95 96 156 167 98 168 164 
51 156 96 16 81 168 99 84 166 
2 12 16 9
52 9 90 169 62 92 173 174 64 
53 90 91 170 169 93 175 176 173 
54 91 13 74 170 94 76 177 175 
55 62 169 171 63 174 178 179 65 
56 169 170 172 171 176 180 181 178 
57 170 74 75 172 177 77 182 180 
58 63 171 100 11 179 183 102 66 
59 171 172 101 100 181 184 103 183 
60 172 75 15 101 182 78 104 184 
3 1 17 9
61 18 1 2 24 129 46 41 113 20 105 134 17 48 26 43 117 133 185 109 118 
62 129 46 41 113 130 47 42 114 133 185 136 109 49 118 44 119 135 186 110 120 
63 130 47 42 114 30 5 6 36 135 186 137 110 50 120 45 121 32 107 29 38 
64 19 18 24 25 131 129 113 115 21 106 139 105 134 27 117 122 138 187 185 123 
65 131 129 113 115 132 130 114 116 138 187 141 185 136 123 119 124 140 188 186 125 
66 132 130 114 116 31 30 36 37 140 188 142 186 137 125 121 126 33 108 107 39 
67 3 19 25 4 56 131 115 51 22 23 58 106 139 28 122 53 143 111 187 127 
68 56 131 115 51 57 132 116 52 143 111 59 187 141 127 124 54 144 112 188 128 
69 57 132 116 52 7 31 37 8 144 112 60 188 142 128 126 55 34 35 108 40 
3 2 17 9
70 62 9 10 68 169 90 85 153 64 145 174 61 92 70 87 157 173 189 149 158 
71 169 90 85 153 170 91 86 154 173 189 176 149 93 158 88 159 175 190 150 160 
72 170 91 86 154 74 13 14 80 175 190 177 150 94 160 89 161 76 147 73 82 
73 63 62 68 69 171 169 153 155 65 146 179 145 174 71 157 162 178 191 189 163 
74 171 169 153 155 172 170 154 156 178 191 181 189 176 163 159 164 180 192 190 165 
75 172 170 154 156 75 74 80 81 180 192 182 190 177 165 161 166 77 148 147 83 
76 11 63 69 12 100 171 155 95 66 67 102 146 179 72 162 97 183 151 191 167 
77 100 171 155 95 101 172 156 96 183 151 103 191 181 167 164 98 184 152 192 168 
78 101 172 156 96 15 75 81 16 184 152 104 192 182 168 166 99 78 79 148 84 
$EndElements
