$MeshFormat
4.1 0 8
$EndMeshFormat
$PhysicalNames
8
2 3 "bottom"
2 4 "top"
2 5 "left"
2 6 "right"
2 7 "front"
2 8 "back"
3 1 "bottom-layer"
3 2 "top-layer"
$EndPhysicalNames
$Entities
12 20 11 2
1 0 0 0 0 
2 0 0 1 0 
3 0 1 1 0 
4 0 1 0 0 
5 1 0 0 0 
6 1 0 1 0 
7 1 1 1 0 
8 1 1 0 0 
9 0 0 2 0 
10 0 1 2 0 
11 1 0 2 0 
12 1 1 2 0 
1 -1e-07 -1e-07 -9.999999994736442e-08 1e-07 1e-07 1.0000001 0 2 1 -2 
2 -1e-07 -9.999999994736442e-08 0.9999999000000001 1e-07 1.0000001 1.0000001 0 2 2 -3 
3 -1e-07 0.9999999000000001 -9.999999994736442e-08 1e-07 1.0000001 1.0000001 0 2 4 -3 
4 -1e-07 -9.999999994736442e-08 -1e-07 1e-07 1.0000001 1e-07 0 2 1 -4 
5 0.9999999000000001 -1e-07 -9.999999994736442e-08 1.0000001 1e-07 1.0000001 0 2 5 -6 
6 0.9999999000000001 -9.999999994736442e-08 0.9999999000000001 1.0000001 1.0000001 1.0000001 0 2 6 -7 
7 0.9999999000000001 0.9999999000000001 -9.999999994736442e-08 1.0000001 1.0000001 1.0000001 0 2 8 -7 
8 0.9999999000000001 -9.999999994736442e-08 -1e-07 1.0000001 1.0000001 1e-07 0 2 5 -8 
9 -9.999999994736442e-08 -1e-07 -1e-07 1.0000001 1e-07 1e-07 0 2 1 -5 
10 -9.999999994736442e-08 -1e-07 0.9999999000000001 1.0000001 1e-07 1.0000001 0 2 2 -6 
11 -9.999999994736442e-08 0.9999999000000001 -1e-07 1.0000001 1.0000001 1e-07 0 2 4 -8 
12 -9.999999994736442e-08 0.9999999000000001 0.9999999000000001 1.0000001 1.0000001 1.0000001 0 2 3 -7 
13 -1e-07 -1e-07 0.9999999000000001 1e-07 1e-07 2.0000001 0 2 2 -9 
14 -1e-07 -9.999999994736442e-08 1.9999999 1e-07 1.0000001 2.0000001 0 2 9 -10 
15 -1e-07 0.9999999000000001 0.9999999000000001 1e-07 1.0000001 2.0000001 0 2 3 -10 
16 0.9999999000000001 -1e-07 0.9999999000000001 1.0000001 1e-07 2.0000001 0 2 6 -11 
17 0.9999999000000001 -9.999999994736442e-08 1.9999999 1.0000001 1.0000001 2.0000001 0 2 11 -12 
18 0.9999999000000001 0.9999999000000001 0.9999999000000001 1.0000001 1.0000001 2.0000001 0 2 7 -12 
19 -9.999999994736442e-08 -1e-07 1.9999999 1.0000001 1e-07 2.0000001 0 2 9 -11 
20 -9.999999994736442e-08 0.9999999000000001 1.9999999 1.0000001 1.0000001 2.0000001 0 2 10 -12 
1 -1e-07 -9.999999994736442e-08 -9.999999994736442e-08 1e-07 1.0000001 1.0000001 1 5 4 -1 4 3 -2 
2 0.9999999000000001 -9.999999994736442e-08 -9.999999994736442e-08 1.0000001 1.0000001 1.0000001 1 6 4 -5 8 7 -6 
3 -9.999999994736442e-08 -1e-07 -9.999999994736442e-08 1.0000001 1e-07 1.0000001 1 7 4 -9 1 10 -5 
4 -9.999999994736442e-08 0.9999999000000001 -9.999999994736442e-08 1.0000001 1.0000001 1.0000001 1 8 4 -11 3 12 -7 
5 -9.999999994736442e-08 -9.999999994736442e-08 -1e-07 1.0000001 1.0000001 1e-07 1 3 4 -4 9 8 -11 
6 -9.999999994736442e-08 -9.999999994736442e-08 0.9999999000000001 1.0000001 1.0000001 1.0000001 0 4 -2 10 6 -12 
7 -1e-07 -9.999999994736442e-08 0.9999999000000001 1e-07 1.0000001 2.0000001 1 5 4 -13 2 15 -14 
8 0.9999999000000001 -9.999999994736442e-08 0.9999999000000001 1.0000001 1.0000001 2.0000001 1 6 4 -16 6 18 -17 
9 -9.999999994736442e-08 -1e-07 0.9999999000000001 1.0000001 1e-07 2.0000001 1 7 4 -10 13 19 -16 
10 -9.999999994736442e-08 0.9999999000000001 0.9999999000000001 1.0000001 1.0000001 2.0000001 1 8 4 -12 15 20 -18 
11 -9.999999994736442e-08 -9.999999994736442e-08 1.9999999 1.0000001 1.0000001 2.0000001 1 4 4 -14 19 17 -20 
1 -9.999999994736442e-08 -9.999999994736442e-08 -9.999999994736442e-08 1.0000001 1.0000001 1.0000001 1 1 6 -1 2 -3 4 -5 6 
2 -9.999999994736442e-08 -9.999999994736442e-08 0.9999999000000001 1.0000001 1.0000001 2.0000001 1 2 6 -7 8 -9 10 -6 11 
$EndEntities
$Nodes
45 45 1 45
0 1 0 1
1
0 0 0
0 2 0 1
2
0 0 1
0 3 0 1
3
0 1 1
0 4 0 1
4
0 1 0
0 5 0 1
5
1 0 0
0 6 0 1
6
1 0 1
0 7 0 1
7
1 1 1
0 8 0 1
8
1 1 0
0 9 0 1
9
0 0 2
0 10 0 1
10
0 1 2
0 11 0 1
11
1 0 2
0 12 0 1
12
1 1 2
1 1 0 1
13
0 0 0.4999999999999999
1 2 0 1
14
0 0.4999999999999999 1
1 3 0 1
15
0 1 0.4999999999999999
1 4 0 1
16
0 0.4999999999999999 0
1 5 0 1
17
1 0 0.4999999999999999
1 6 0 1
18
1 0.4999999999999999 1
1 7 0 1
19
1 1 0.4999999999999999
1 8 0 1
20
1 0.4999999999999999 0
1 9 0 1
21
0.4999999999999999 0 0
1 10 0 1
22
0.4999999999999999 0 1
1 11 0 1
23
0.4999999999999999 1 0
1 12 0 1
24
0.4999999999999999 1 1
1 13 0 1
25
0 0 1.5
1 14 0 1
26
0 0.4999999999999999 2
1 15 0 1
27
0 1 1.5
1 16 0 1
28
1 0 1.5
1 17 0 1
29
1 0.4999999999999999 2
1 18 0 1
30
1 1 1.5
1 19 0 1
31
0.4999999999999999 0 2
1 20 0 1
32
0.4999999999999999 1 2
2 1 0 1
33
0 0.5 0.5
2 2 0 1
34
1 0.5 0.5
2 3 0 1
35
0.5 0 0.5
2 4 0 1
36
0.5 1 0.5
2 5 0 1
37
0.5 0.5 0
2 6 0 1
38
0.5 0.5 1
2 7 0 1
39
0 0.5 1.5
2 8 0 1
40
1 0.5 1.5
2 9 0 1
41
0.5 0 1.5
2 10 0 1
42
0.5 1 1.5
2 11 0 1
43
0.5 0.5 2
3 1 0 1
44
0.5 0.5 0.5
3 2 0 1
45
0.5 0.5 1.5
$EndNodes
$Elements
12 12 1 12
2 1 10 1
1 1 2 3 4 13 14 15 16 33 
2 2 10 1
2 5 8 7 6 20 19 18 17 34 
2 3 10 1
3 1 5 6 2 21 17 22 13 35 
2 4 10 1
4 4 3 7 8 15 24 19 23 36 
2 5 10 1
5 1 4 8 5 16 23 20 21 37 
2 7 10 1
6 2 9 10 3 25 26 27 14 39 
2 8 10 1
7 6 7 12 11 18 30 29 28 40 
2 9 10 1
8 2 6 11 9 22 28 31 25 41 
2 10 10 1
9 3 10 12 7 27 32 30 24 42 
2 11 10 1
10 9 11 12 10 31 29 32 26 43 
3 1 12 1
11 3 2 1 4 7 6 5 8 14 15 24 13 22 16 21 23 18 19 17 20 33 38 36 35 37 34 44 
3 2 12 1
12 10 9 2 3 12 11 6 7 26 27 32 25 31 14 22 24 29 30 28 18 39 43 42 41 38 40 45 
$EndElements
