$MeshFormat
4.1 0 8
$EndMeshFormat
$PhysicalNames
14
2 3 "bottom-box-left"
2 4 "bottom-box-right"
2 5 "bottom-box-front"
2 6 "bottom-box-back"
2 7 "bottom-box-bottom"
2 8 "bottom-box-top"
2 9 "top-box-left"
2 10 "top-box-right"
2 11 "top-box-front"
2 12 "top-box-back"
2 13 "top-box-bottom"
2 14 "top-box-top"
3 1 "bottom-box"
3 2 "top-box"
$EndPhysicalNames
$Entities
16 24 12 2
1 0 0 0.5 0 
2 0 0 0 0 
3 0 1 0.5 0 
4 0 1 0 0 
5 1 0 0.5 0 
6 1 0 0 0 
7 1 1 0.5 0 
8 1 1 0 0 
9 0 0 1 0 
10 0 0 0.5 0 
11 0 1 1 0 
12 0 1 0.5 0 
13 1 0 1 0 
14 1 0 0.5 0 
15 1 1 1 0 
16 1 1 0.5 0 
1 -1e-07 -1e-07 -9.999999997511999e-08 1e-07 1e-07 0.5000000999999999 0 2 2 -1 
2 -1e-07 -9.999999994736442e-08 0.4999999 1e-07 1.0000001 0.5000000999999999 0 2 1 -3 
3 -1e-07 0.9999999000000001 -9.999999997511999e-08 1e-07 1.0000001 0.5000000999999999 0 2 4 -3 
4 -1e-07 -9.999999994736442e-08 -1e-07 1e-07 1.0000001 1e-07 0 2 2 -4 
5 0.9999999000000001 -1e-07 -9.999999997511999e-08 1.0000001 1e-07 0.5000000999999999 0 2 6 -5 
6 0.9999999000000001 -9.999999994736442e-08 0.4999999 1.0000001 1.0000001 0.5000000999999999 0 2 5 -7 
7 0.9999999000000001 0.9999999000000001 -9.999999997511999e-08 1.0000001 1.0000001 0.5000000999999999 0 2 8 -7 
8 0.9999999000000001 -9.999999994736442e-08 -1e-07 1.0000001 1.0000001 1e-07 0 2 6 -8 
9 -9.999999994736442e-08 -1e-07 -1e-07 1.0000001 1e-07 1e-07 0 2 2 -6 
10 -9.999999994736442e-08 -1e-07 0.4999999 1.0000001 1e-07 0.5000000999999999 0 2 1 -5 
11 -9.999999994736442e-08 0.9999999000000001 -1e-07 1.0000001 1.0000001 1e-07 0 2 4 -8 
12 -9.999999994736442e-08 0.9999999000000001 0.4999999 1.0000001 1.0000001 0.5000000999999999 0 2 3 -7 
13 -1e-07 -1e-07 0.4999999 1e-07 1e-07 1.0000001 0 2 10 -9 
14 -1e-07 -9.999999994736442e-08 0.9999999000000001 1e-07 1.0000001 1.0000001 0 2 9 -11 
15 -1e-07 0.9999999000000001 0.4999999 1e-07 1.0000001 1.0000001 0 2 12 -11 
16 -1e-07 -9.999999994736442e-08 0.4999999 1e-07 1.0000001 0.5000000999999999 0 2 10 -12 
17 0.9999999000000001 -1e-07 0.4999999 1.0000001 1e-07 1.0000001 0 2 14 -13 
18 0.9999999000000001 -9.999999994736442e-08 0.9999999000000001 1.0000001 1.0000001 1.0000001 0 2 13 -15 
19 0.9999999000000001 0.9999999000000001 0.4999999 1.0000001 1.0000001 1.0000001 0 2 16 -15 
20 0.9999999000000001 -9.999999994736442e-08 0.4999999 1.0000001 1.0000001 0.5000000999999999 0 2 14 -16 
21 -9.999999994736442e-08 -1e-07 0.4999999 1.0000001 1e-07 0.5000000999999999 0 2 10 -14 
22 -9.999999994736442e-08 -1e-07 0.9999999000000001 1.0000001 1e-07 1.0000001 0 2 9 -13 
23 -9.999999994736442e-08 0.9999999000000001 0.4999999 1.0000001 1.0000001 0.5000000999999999 0 2 12 -16 
24 -9.999999994736442e-08 0.9999999000000001 0.9999999000000001 1.0000001 1.0000001 1.0000001 0 2 11 -15 
1 -1e-07 -9.999999994736442e-08 -9.999999997511999e-08 1e-07 1.0000001 0.5000000999999999 1 3 4 -1 4 3 -2 
2 0.9999999000000001 -9.999999994736442e-08 -9.999999997511999e-08 1.0000001 1.0000001 0.5000000999999999 1 4 4 -5 8 7 -6 
3 -9.999999994736442e-08 -1e-07 -9.999999997511999e-08 1.0000001 1e-07 0.5000000999999999 1 5 4 -9 1 10 -5 
4 -9.999999994736442e-08 0.9999999000000001 -9.999999997511999e-08 1.0000001 1.0000001 0.5000000999999999 1 6 4 -11 3 12 -7 
5 -9.999999994736442e-08 -9.999999994736442e-08 -1e-07 1.0000001 1.0000001 1e-07 1 7 4 -4 9 8 -11 
6 -9.999999994736442e-08 -9.999999994736442e-08 0.4999999 1.0000001 1.0000001 0.5000000999999999 1 8 4 -2 10 6 -12 
7 -1e-07 -9.999999994736442e-08 0.4999999 1e-07 1.0000001 1.0000001 1 9 4 -13 16 15 -14 
8 0.9999999000000001 -9.999999994736442e-08 0.4999999 1.0000001 1.0000001 1.0000001 1 10 4 -17 20 19 -18 
9 -9.999999994736442e-08 -1e-07 0.4999999 1.0000001 1e-07 1.0000001 1 11 4 -21 13 22 -17 
10 -9.999999994736442e-08 0.9999999000000001 0.4999999 1.0000001 1.0000001 1.0000001 1 12 4 -23 15 24 -19 
11 -9.999999994736442e-08 -9.999999994736442e-08 0.4999999 1.0000001 1.0000001 0.5000000999999999 1 13 4 -16 21 20 -23 
12 -9.999999994736442e-08 -9.999999994736442e-08 0.9999999000000001 1.0000001 1.0000001 1.0000001 1 14 4 -14 22 18 -24 
1 -9.999999994736442e-08 -9.999999994736442e-08 -9.999999997511999e-08 1.0000001 1.0000001 0.5000000999999999 1 1 6 -1 2 -3 4 -5 6 
2 -9.999999994736442e-08 -9.999999994736442e-08 0.4999999 1.0000001 1.0000001 1.0000001 1 2 6 -7 8 -9 10 -11 12 
$EndEntities
$Nodes
54 294 1 294
0 1 0 1
1
0 0 0.5
0 2 0 1
2
0 0 0
0 3 0 1
3
0 1 0.5
0 4 0 1
4
0 1 0
0 5 0 1
5
1 0 0.5
0 6 0 1
6
1 0 0
0 7 0 1
7
1 1 0.5
0 8 0 1
8
1 1 0
0 9 0 1
9
0 0 1
0 10 0 1
10
0 0 0.5
0 11 0 1
11
0 1 1
0 12 0 1
12
0 1 0.5
0 13 0 1
13
1 0 1
0 14 0 1
14
1 0 0.5
0 15 0 1
15
1 1 1
0 16 0 1
16
1 1 0.5
1 1 0 1
17
0 0 0.25
1 2 0 5
18
19
20
21
22
0 0.3333333333333333 0.5
0 0.6666666666666666 0.5
0 0.1666666666666667 0.5
0 0.5 0.5
0 0.8333333333333333 0.5
1 3 0 1
23
0 1 0.25
1 4 0 5
24
25
26
27
28
0 0.3333333333333333 0
0 0.6666666666666666 0
0 0.1666666666666667 0
0 0.5 0
0 0.8333333333333333 0
1 5 0 1
29
1 0 0.25
1 6 0 5
30
31
32
33
34
1 0.3333333333333333 0.5
1 0.6666666666666666 0.5
1 0.1666666666666667 0.5
1 0.5 0.5
1 0.8333333333333333 0.5
1 7 0 1
35
1 1 0.25
1 8 0 5
36
37
38
39
40
1 0.3333333333333333 0
1 0.6666666666666666 0
1 0.1666666666666667 0
1 0.5 0
1 0.8333333333333333 0
1 9 0 5
41
42
43
44
45
0.3333333333333333 0 0
0.6666666666666666 0 0
0.1666666666666667 0 0
0.5 0 0
0.8333333333333333 0 0
1 10 0 5
46
47
48
49
50
0.3333333333333333 0 0.5
0.6666666666666666 0 0.5
0.1666666666666667 0 0.5
0.5 0 0.5
0.8333333333333333 0 0.5
1 11 0 5
51
52
53
54
55
0.3333333333333333 1 0
0.6666666666666666 1 0
0.1666666666666667 1 0
0.5 1 0
0.8333333333333333 1 0
1 12 0 5
56
57
58
59
60
0.3333333333333333 1 0.5
0.6666666666666666 1 0.5
0.1666666666666667 1 0.5
0.5 1 0.5
0.8333333333333333 1 0.5
1 13 0 1
61
0 0 0.75
1 14 0 5
62
63
64
65
66
0 0.3333333333333333 1
0 0.6666666666666666 1
0 0.1666666666666667 1
0 0.5 1
0 0.8333333333333333 1
1 15 0 1
67
0 1 0.75
1 16 0 5
68
69
70
71
72
0 0.3333333333333333 0.5
0 0.6666666666666666 0.5
0 0.1666666666666667 0.5
0 0.5 0.5
0 0.8333333333333333 0.5
1 17 0 1
73
1 0 0.75
1 18 0 5
74
75
76
77
78
1 0.3333333333333333 1
1 0.6666666666666666 1
1 0.1666666666666667 1
1 0.5 1
1 0.8333333333333333 1
1 19 0 1
79
1 1 0.75
1 20 0 5
80
81
82
83
84
1 0.3333333333333333 0.5
1 0.6666666666666666 0.5
1 0.1666666666666667 0.5
1 0.5 0.5
1 0.8333333333333333 0.5
1 21 0 5
85
86
87
88
89
0.3333333333333333 0 0.5
0.6666666666666666 0 0.5
0.1666666666666667 0 0.5
0.5 0 0.5
0.8333333333333333 0 0.5
1 22 0 5
90
91
92
93
94
0.3333333333333333 0 1
0.6666666666666666 0 1
0.1666666666666667 0 1
0.5 0 1
0.8333333333333333 0 1
1 23 0 5
95
96
97
98
99
0.3333333333333333 1 0.5
0.6666666666666666 1 0.5
0.1666666666666667 1 0.5
0.5 1 0.5
0.8333333333333333 1 0.5
1 24 0 5
100
101
102
103
104
0.3333333333333333 1 1
0.6666666666666666 1 1
0.1666666666666667 1 1
0.5 1 1
0.8333333333333333 1 1
2 1 0 5
105
106
107
108
109
0 0.3333333333333333 0.25
0 0.1666666666666667 0.25
0 0.6666666666666666 0.25
0 0.4999999999999999 0.25
0 0.8333333333333333 0.25
2 2 0 5
110
111
112
113
114
1 0.3333333333333333 0.25
1 0.1666666666666667 0.25
1 0.6666666666666666 0.25
1 0.5 0.25
1 0.8333333333333333 0.25
2 3 0 5
115
116
117
118
119
0.3333333333333333 0 0.25
0.1666666666666667 0 0.25
0.6666666666666666 0 0.25
0.5 0 0.25
0.8333333333333333 0 0.25
2 4 0 5
120
121
122
123
124
0.3333333333333333 1 0.25
0.1666666666666667 1 0.25
0.6666666666666666 1 0.25
0.4999999999999999 1 0.25
0.8333333333333333 1 0.25
2 5 0 25
125
126
127
128
129
130
131
132
133
134
135
136
137
138
139
140
141
142
143
144
145
146
147
148
149
0.3333333333333334 0.3333333333333334 0
0.6666666666666667 0.3333333333333333 0
0.3333333333333333 0.6666666666666667 0
0.6666666666666666 0.6666666666666666 0
0.1666666666666667 0.3333333333333334 0
0.3333333333333334 0.1666666666666667 0
0.1666666666666667 0.1666666666666667 0
0.5 0.3333333333333334 0
0.6666666666666667 0.1666666666666667 0
0.5 0.1666666666666667 0
0.8333333333333334 0.3333333333333333 0
0.8333333333333333 0.1666666666666667 0
0.1666666666666667 0.6666666666666667 0
0.3333333333333334 0.5 0
0.1666666666666667 0.5 0
0.5 0.6666666666666667 0
0.6666666666666667 0.5 0
0.5 0.5000000000000001 0
0.8333333333333333 0.6666666666666666 0
0.8333333333333333 0.5 0
0.3333333333333333 0.8333333333333334 0
0.1666666666666667 0.8333333333333334 0
0.6666666666666666 0.8333333333333333 0
0.4999999999999999 0.8333333333333333 0
0.8333333333333333 0.8333333333333333 0
2 6 0 25
150
151
152
153
154
155
156
157
158
159
160
161
162
163
164
165
166
167
168
169
170
171
172
173
174
0.3333333333333334 0.3333333333333334 0.5
0.6666666666666667 0.3333333333333333 0.5
0.3333333333333333 0.6666666666666667 0.5
0.6666666666666666 0.6666666666666666 0.5
0.3333333333333334 0.1666666666666667 0.5
0.1666666666666667 0.3333333333333334 0.5
0.1666666666666667 0.1666666666666667 0.5
0.6666666666666667 0.1666666666666667 0.5
0.5 0.3333333333333334 0.5
0.5 0.1666666666666667 0.5
0.8333333333333334 0.3333333333333333 0.5
0.8333333333333334 0.1666666666666667 0.5
0.3333333333333334 0.5 0.5
0.1666666666666667 0.6666666666666667 0.5
0.1666666666666667 0.5 0.5
0.6666666666666667 0.5 0.5
0.5 0.6666666666666667 0.5
0.5000000000000001 0.5 0.5
0.8333333333333333 0.6666666666666666 0.5
0.8333333333333333 0.4999999999999999 0.5
0.3333333333333333 0.8333333333333334 0.5
0.1666666666666667 0.8333333333333333 0.5
0.6666666666666666 0.8333333333333333 0.5
0.5 0.8333333333333333 0.5
0.8333333333333333 0.8333333333333333 0.5
2 7 0 5
175
176
177
178
179
0 0.3333333333333333 0.75
0 0.1666666666666667 0.75
0 0.6666666666666666 0.75
0 0.4999999999999999 0.75
0 0.8333333333333333 0.75
2 8 0 5
180
181
182
183
184
1 0.3333333333333333 0.75
1 0.1666666666666667 0.75
1 0.6666666666666666 0.75
1 0.5 0.75
1 0.8333333333333333 0.75
2 9 0 5
185
186
187
188
189
0.3333333333333333 0 0.75
0.1666666666666667 0 0.75
0.6666666666666666 0 0.75
0.5 0 0.75
0.8333333333333333 0 0.75
2 10 0 5
190
191
192
193
194
0.3333333333333333 1 0.75
0.1666666666666667 1 0.75
0.6666666666666666 1 0.75
0.4999999999999999 1 0.75
0.8333333333333333 1 0.75
2 11 0 25
195
196
197
198
199
200
201
202
203
204
205
206
207
208
209
210
211
212
213
214
215
216
217
218
219
0.3333333333333334 0.3333333333333334 0.5
0.6666666666666667 0.3333333333333333 0.5
0.3333333333333333 0.6666666666666667 0.5
0.6666666666666666 0.6666666666666666 0.5
0.1666666666666667 0.3333333333333334 0.5
0.3333333333333334 0.1666666666666667 0.5
0.1666666666666667 0.1666666666666667 0.5
0.5 0.3333333333333334 0.5
0.6666666666666667 0.1666666666666667 0.5
0.5 0.1666666666666667 0.5
0.8333333333333334 0.3333333333333333 0.5
0.8333333333333333 0.1666666666666667 0.5
0.1666666666666667 0.6666666666666667 0.5
0.3333333333333334 0.5 0.5
0.1666666666666667 0.5 0.5
0.5 0.6666666666666667 0.5
0.6666666666666667 0.5 0.5
0.5 0.5000000000000001 0.5
0.8333333333333333 0.6666666666666666 0.5
0.8333333333333333 0.5 0.5
0.3333333333333333 0.8333333333333334 0.5
0.1666666666666667 0.8333333333333334 0.5
0.6666666666666666 0.8333333333333333 0.5
0.4999999999999999 0.8333333333333333 0.5
0.8333333333333333 0.8333333333333333 0.5
2 12 0 25
220
221
222
223
224
225
226
227
228
229
230
231
232
233
234
235
236
237
238
239
240
241
242
243
244
0.3333333333333334 0.3333333333333334 1
0.6666666666666667 0.3333333333333333 1
0.3333333333333333 0.6666666666666667 1
0.6666666666666666 0.6666666666666666 1
0.3333333333333334 0.1666666666666667 1
0.1666666666666667 0.3333333333333334 1
0.1666666666666667 0.1666666666666667 1
0.6666666666666667 0.1666666666666667 1
0.5 0.3333333333333334 1
0.5 0.1666666666666667 1
0.8333333333333334 0.3333333333333333 1
0.8333333333333334 0.1666666666666667 1
0.3333333333333334 0.5 1
0.1666666666666667 0.6666666666666667 1
0.1666666666666667 0.5 1
0.6666666666666667 0.5 1
0.5 0.6666666666666667 1
0.5000000000000001 0.5 1
0.8333333333333333 0.6666666666666666 1
0.8333333333333333 0.4999999999999999 1
0.3333333333333333 0.8333333333333334 1
0.1666666666666667 0.8333333333333333 1
0.6666666666666666 0.8333333333333333 1
0.5 0.8333333333333333 1
0.8333333333333333 0.8333333333333333 1
3 1 0 25
245
246
247
248
249
250
251
252
253
254
255
256
257
258
259
260
261
262
263
264
265
266
267
268
269
0.3333333333333334 0.3333333333333334 0.25
0.1666666666666667 0.3333333333333334 0.25
0.3333333333333334 0.1666666666666667 0.25
0.1666666666666667 0.1666666666666667 0.25
0.6666666666666667 0.3333333333333333 0.25
0.5 0.3333333333333334 0.25
0.6666666666666667 0.1666666666666667 0.25
0.5000000000000001 0.1666666666666667 0.25
0.8333333333333333 0.3333333333333333 0.25
0.8333333333333336 0.1666666666666666 0.25
0.3333333333333333 0.6666666666666667 0.25
0.1666666666666667 0.6666666666666667 0.25
0.3333333333333334 0.5 0.25
0.1666666666666667 0.5 0.25
0.6666666666666666 0.6666666666666666 0.25
0.5 0.6666666666666667 0.25
0.6666666666666667 0.5 0.25
0.5000000000000001 0.5000000000000001 0.25
0.8333333333333333 0.6666666666666666 0.25
0.833333333333333 0.5 0.25
0.3333333333333333 0.8333333333333334 0.25
0.1666666666666667 0.8333333333333334 0.25
0.6666666666666666 0.8333333333333333 0.25
0.5 0.8333333333333335 0.25
0.8333333333333333 0.8333333333333333 0.25
3 2 0 25
270
271
272
273
274
275
276
277
278
279
280
281
282
283
284
285
286
287
288
289
290
291
292
293
294
0.3333333333333334 0.3333333333333334 0.75
0.1666666666666667 0.3333333333333334 0.75
0.3333333333333334 0.1666666666666667 0.75
0.1666666666666667 0.1666666666666667 0.75
0.6666666666666667 0.3333333333333333 0.75
0.5 0.3333333333333334 0.75
0.6666666666666667 0.1666666666666667 0.75
0.5000000000000001 0.1666666666666667 0.75
0.8333333333333333 0.3333333333333333 0.75
0.8333333333333336 0.1666666666666666 0.75
0.3333333333333333 0.6666666666666667 0.75
0.1666666666666667 0.6666666666666667 0.75
0.3333333333333334 0.5 0.75
0.1666666666666667 0.5 0.75
0.6666666666666666 0.6666666666666666 0.75
0.5 0.6666666666666667 0.75
0.6666666666666667 0.5 0.75
0.5000000000000001 0.5000000000000001 0.75
0.8333333333333333 0.6666666666666666 0.75
0.833333333333333 0.5 0.75
0.3333333333333333 0.8333333333333334 0.75
0.1666666666666667 0.8333333333333334 0.75
0.6666666666666666 0.8333333333333333 0.75
0.5 0.8333333333333335 0.75
0.8333333333333333 0.8333333333333333 0.75
$EndNodes
$Elements
14 78 1 78
2 1 10 3
1 2 1 18 24 17 20 105 26 106 
2 24 18 19 25 105 21 107 27 108 
3 25 19 3 4 107 22 23 28 109 
2 2 10 3
4 6 36 30 5 38 110 32 29 111 
5 36 37 31 30 39 112 33 110 113 
6 37 8 7 31 40 35 34 112 114 
2 3 10 3
7 2 41 46 1 43 115 48 17 116 
8 41 42 47 46 44 117 49 115 118 
9 42 6 5 47 45 29 50 117 119 
2 4 10 3
10 4 3 56 51 23 58 120 53 121 
11 51 56 57 52 120 59 122 54 123 
12 52 57 7 8 122 60 35 55 124 
2 5 10 9
13 2 24 125 41 26 129 130 43 131 
14 41 125 126 42 130 132 133 44 134 
15 42 126 36 6 133 135 38 45 136 
16 24 25 127 125 27 137 138 129 139 
17 125 127 128 126 138 140 141 132 142 
18 126 128 37 36 141 143 39 135 144 
19 25 4 51 127 28 53 145 137 146 
20 127 51 52 128 145 54 147 140 148 
21 128 52 8 37 147 55 40 143 149 
2 6 10 9
22 1 46 150 18 48 154 155 20 156 
23 46 47 151 150 49 157 158 154 159 
24 47 5 30 151 50 32 160 157 161 
25 18 150 152 19 155 162 163 21 164 
26 150 151 153 152 158 165 166 162 167 
27 151 30 31 153 160 33 168 165 169 
28 19 152 56 3 163 170 58 22 171 
29 152 153 57 56 166 172 59 170 173 
30 153 31 7 57 168 34 60 172 174 
2 7 10 3
31 10 9 62 68 61 64 175 70 176 
32 68 62 63 69 175 65 177 71 178 
33 69 63 11 12 177 66 67 72 179 
2 8 10 3
34 14 80 74 13 82 180 76 73 181 
35 80 81 75 74 83 182 77 180 183 
36 81 16 15 75 84 79 78 182 184 
2 9 10 3
37 10 85 90 9 87 185 92 61 186 
38 85 86 91 90 88 187 93 185 188 
39 86 14 13 91 89 73 94 187 189 
2 10 10 3
40 12 11 100 95 67 102 190 97 191 
41 95 100 101 96 190 103 192 98 193 
42 96 101 15 16 192 104 79 99 194 
2 11 10 9
43 10 68 195 85 70 199 200 87 201 
44 85 195 196 86 200 202 203 88 204 
45 86 196 80 14 203 205 82 89 206 
46 68 69 197 195 71 207 208 199 209 
47 195 197 198 196 208 210 211 202 212 
48 196 198 81 80 211 213 83 205 214 
49 69 12 95 197 72 97 215 207 216 
50 197 95 96 198 215 98 217 210 218 
51 198 96 16 81 217 99 84 213 219 
2 12 10 9
52 9 90 220 62 92 224 225 64 226 
53 90 91 221 220 93 227 228 224 229 
54 91 13 74 221 94 76 230 227 231 
55 62 220 222 63 225 232 233 65 234 
56 220 221 223 222 228 235 236 232 237 
57 221 74 75 223 230 77 238 235 239 
58 63 222 100 11 233 240 102 66 241 
59 222 223 101 100 236 242 103 240 243 
60 223 75 15 101 238 78 104 242 244 
3 1 12 9
61 18 1 2 24 150 46 41 125 20 105 155 17 48 26 43 129 154 245 115 130 106 156 246 116 131 247 248 
62 150 46 41 125 151 47 42 126 154 245 158 115 49 130 44 132 157 249 117 133 247 159 250 118 134 251 252 
63 151 47 42 126 30 5 6 36 157 249 160 117 50 133 45 135 32 110 29 38 251 161 253 119 136 111 254 
64 19 18 24 25 152 150 125 127 21 107 163 105 155 27 129 137 162 255 245 138 108 164 256 246 139 257 258 
65 152 150 125 127 153 151 126 128 162 255 166 245 158 138 132 140 165 259 249 141 257 167 260 250 142 261 262 
66 153 151 126 128 31 30 36 37 165 259 168 249 160 141 135 143 33 112 110 39 261 169 263 253 144 113 264 
67 3 19 25 4 56 152 127 51 22 23 58 107 163 28 137 53 170 120 255 145 109 171 121 256 146 265 266 
68 56 152 127 51 57 153 128 52 170 120 59 255 166 145 140 54 172 122 259 147 265 173 123 260 148 267 268 
69 57 153 128 52 7 31 37 8 172 122 60 259 168 147 143 55 34 35 112 40 267 174 124 263 149 114 269 
3 2 12 9
70 62 9 10 68 220 90 85 195 64 175 225 61 92 70 87 199 224 270 185 200 176 226 271 186 201 272 273 
71 220 90 85 195 221 91 86 196 224 270 228 185 93 200 88 202 227 274 187 203 272 229 275 188 204 276 277 
72 221 91 86 196 74 13 14 80 227 274 230 187 94 203 89 205 76 180 73 82 276 231 278 189 206 181 279 
73 63 62 68 69 222 220 195 197 65 177 233 175 225 71 199 207 232 280 270 208 178 234 281 271 209 282 283 
74 222 220 195 197 223 221 196 198 232 280 236 270 228 208 202 210 235 284 274 211 282 237 285 275 212 286 287 
75 223 221 196 198 75 74 80 81 235 284 238 274 230 211 205 213 77 182 180 83 286 239 288 278 214 183 289 
76 11 63 69 12 100 222 197 95 66 67 102 177 233 72 207 97 240 190 280 215 179 241 191 281 216 290 291 
77 100 222 197 95 101 223 198 96 240 190 103 280 236 215 210 98 242 192 284 217 290 243 193 285 218 292 293 
78 101 223 198 96 15 75 81 16 242 192 104 284 238 217 213 99 78 79 182 84 292 244 194 288 219 184 294 
$EndElements
