$MeshFormat
4.1 0 8
$EndMeshFormat
$PhysicalNames
14
2 3 "bottom-box-left"
2 4 "bottom-box-right"
2 5 "bottom-box-front"
2 6 "bottom-box-back"
2 7 "bottom-box-bottom"
2 8 "bottom-box-top"
2 9 "top-box-left"
2 10 "top-box-right"
2 11 "top-box-front"
2 12 "top-box-back"
2 13 "top-box-bottom"
2 14 "top-box-top"
3 1 "bottom-box"
3 2 "top-box"
$EndPhysicalNames
$Entities
16 24 12 2
1 0 0 0.5 0 
2 0 0 0 0 
3 0 1 0.5 0 
4 0 1 0 0 
5 1 0 0.5 0 
6 1 0 0 0 
7 1 1 0.5 0 
8 1 1 0 0 
9 0 0 1 0 
10 0 0 0.5 0 
11 0 1 1 0 
12 0 1 0.5 0 
13 1 0 1 0 
14 1 0 0.5 0 
15 1 1 1 0 
16 1 1 0.5 0 
1 -1e-07 -1e-07 -9.999999997511999e-08 1e-07 1e-07 0.5000000999999999 0 2 2 -1 
2 -1e-07 -9.999999994736442e-08 0.4999999 1e-07 1.0000001 0.5000000999999999 0 2 1 -3 
3 -1e-07 0.9999999000000001 -9.999999997511999e-08 1e-07 1.0000001 0.5000000999999999 0 2 4 -3 
4 -1e-07 -9.999999994736442e-08 -1e-07 1e-07 1.0000001 1e-07 0 2 2 -4 
5 0.9999999000000001 -1e-07 -9.999999997511999e-08 1.0000001 1e-07 0.5000000999999999 0 2 6 -5 
6 0.9999999000000001 -9.999999994736442e-08 0.4999999 1.0000001 1.0000001 0.5000000999999999 0 2 5 -7 
7 0.9999999000000001 0.9999999000000001 -9.999999997511999e-08 1.0000001 1.0000001 0.5000000999999999 0 2 8 -7 
8 0.9999999000000001 -9.999999994736442e-08 -1e-07 1.0000001 1.0000001 1e-07 0 2 6 -8 
9 -9.999999994736442e-08 -1e-07 -1e-07 1.0000001 1e-07 1e-07 0 2 2 -6 
10 -9.999999994736442e-08 -1e-07 0.4999999 1.0000001 1e-07 0.5000000999999999 0 2 1 -5 
11 -9.999999994736442e-08 0.9999999000000001 -1e-07 1.0000001 1.0000001 1e-07 0 2 4 -8 
12 -9.999999994736442e-08 0.9999999000000001 0.4999999 1.0000001 1.0000001 0.5000000999999999 0 2 3 -7 
13 -1e-07 -1e-07 0.4999999 1e-07 1e-07 1.0000001 0 2 10 -9 
14 -1e-07 -9.999999994736442e-08 0.9999999000000001 1e-07 1.0000001 1.0000001 0 2 9 -11 
15 -1e-07 0.9999999000000001 0.4999999 1e-07 1.0000001 1.0000001 0 2 12 -11 
16 -1e-07 -9.999999994736442e-08 0.4999999 1e-07 1.0000001 0.5000000999999999 0 2 10 -12 
17 0.9999999000000001 -1e-07 0.4999999 1.0000001 1e-07 1.0000001 0 2 14 -13 
18 0.9999999000000001 -9.999999994736442e-08 0.9999999000000001 1.0000001 1.0000001 1.0000001 0 2 13 -15 
19 0.9999999000000001 0.9999999000000001 0.4999999 1.0000001 1.0000001 1.0000001 0 2 16 -15 
20 0.9999999000000001 -9.999999994736442e-08 0.4999999 1.0000001 1.0000001 0.5000000999999999 0 2 14 -16 
21 -9.999999994736442e-08 -1e-07 0.4999999 1.0000001 1e-07 0.5000000999999999 0 2 10 -14 
22 -9.999999994736442e-08 -1e-07 0.9999999000000001 1.0000001 1e-07 1.0000001 0 2 9 -13 
23 -9.999999994736442e-08 0.9999999000000001 0.4999999 1.0000001 1.0000001 0.5000000999999999 0 2 12 -16 
24 -9.999999994736442e-08 0.9999999000000001 0.9999999000000001 1.0000001 1.0000001 1.0000001 0 2 11 -15 
1 -1e-07 -9.999999994736442e-08 -9.999999997511999e-08 1e-07 1.0000001 0.5000000999999999 1 3 4 -1 4 3 -2 
2 0.9999999000000001 -9.999999994736442e-08 -9.999999997511999e-08 1.0000001 1.0000001 0.5000000999999999 1 4 4 -5 8 7 -6 
3 -9.999999994736442e-08 -1e-07 -9.999999997511999e-08 1.0000001 1e-07 0.5000000999999999 1 5 4 -9 1 10 -5 
4 -9.999999994736442e-08 0.9999999000000001 -9.999999997511999e-08 1.0000001 1.0000001 0.5000000999999999 1 6 4 -11 3 12 -7 
5 -9.999999994736442e-08 -9.999999994736442e-08 -1e-07 1.0000001 1.0000001 1e-07 1 7 4 -4 9 8 -11 
6 -9.999999994736442e-08 -9.999999994736442e-08 0.4999999 1.0000001 1.0000001 0.5000000999999999 1 8 4 -2 10 6 -12 
7 -1e-07 -9.999999994736442e-08 0.4999999 1e-07 1.0000001 1.0000001 1 9 4 -13 16 15 -14 
8 0.9999999000000001 -9.999999994736442e-08 0.4999999 1.0000001 1.0000001 1.0000001 1 10 4 -17 20 19 -18 
9 -9.999999994736442e-08 -1e-07 0.4999999 1.0000001 1e-07 1.0000001 1 11 4 -21 13 22 -17 
10 -9.999999994736442e-08 0.9999999000000001 0.4999999 1.0000001 1.0000001 1.0000001 1 12 4 -23 15 24 -19 
11 -9.999999994736442e-08 -9.999999994736442e-08 0.4999999 1.0000001 1.0000001 0.5000000999999999 1 13 4 -16 21 20 -23 
12 -9.999999994736442e-08 -9.999999994736442e-08 0.9999999000000001 1.0000001 1.0000001 1.0000001 1 14 4 -14 22 18 -24 
1 -9.999999994736442e-08 -9.999999994736442e-08 -9.999999997511999e-08 1.0000001 1.0000001 0.5000000999999999 1 1 6 -1 2 -3 4 -5 6 
2 -9.999999994736442e-08 -9.999999994736442e-08 0.4999999 1.0000001 1.0000001 1.0000001 1 2 6 -7 8 -9 10 -11 12 
$EndEntities
$Nodes
46 64 1 64
0 1 0 1
1
0 0 0.5
0 2 0 1
2
0 0 0
0 3 0 1
3
0 1 0.5
0 4 0 1
4
0 1 0
0 5 0 1
5
1 0 0.5
0 6 0 1
6
1 0 0
0 7 0 1
7
1 1 0.5
0 8 0 1
8
1 1 0
0 9 0 1
9
0 0 1
0 10 0 1
10
0 0 0.5
0 11 0 1
11
0 1 1
0 12 0 1
12
0 1 0.5
0 13 0 1
13
1 0 1
0 14 0 1
14
1 0 0.5
0 15 0 1
15
1 1 1
0 16 0 1
16
1 1 0.5
1 2 0 2
17
18
0 0.3333333333333333 0.5
0 0.6666666666666666 0.5
1 4 0 2
19
20
0 0.3333333333333333 0
0 0.6666666666666666 0
1 6 0 2
21
22
1 0.3333333333333333 0.5
1 0.6666666666666666 0.5
1 8 0 2
23
24
1 0.3333333333333333 0
1 0.6666666666666666 0
1 9 0 2
25
26
0.3333333333333333 0 0
0.6666666666666666 0 0
1 10 0 2
27
28
0.3333333333333333 0 0.5
0.6666666666666666 0 0.5
1 11 0 2
29
30
0.3333333333333333 1 0
0.6666666666666666 1 0
1 12 0 2
31
32
0.3333333333333333 1 0.5
0.6666666666666666 1 0.5
1 14 0 2
33
34
0 0.3333333333333333 1
0 0.6666666666666666 1
1 16 0 2
35
36
0 0.3333333333333333 0.5
0 0.6666666666666666 0.5
1 18 0 2
37
38
1 0.3333333333333333 1
1 0.6666666666666666 1
1 20 0 2
39
40
1 0.3333333333333333 0.5
1 0.6666666666666666 0.5
1 21 0 2
41
42
0.3333333333333333 0 0.5
0.6666666666666666 0 0.5
1 22 0 2
43
44
0.3333333333333333 0 1
0.6666666666666666 0 1
1 23 0 2
45
46
0.3333333333333333 1 0.5
0.6666666666666666 1 0.5
1 24 0 2
47
48
0.3333333333333333 1 1
0.6666666666666666 1 1
2 1 0 0
2 2 0 0
2 3 0 0
2 4 0 0
2 5 0 4
49
50
51
52
0.3333333333333334 0.3333333333333334 0
0.6666666666666667 0.3333333333333333 0
0.3333333333333333 0.6666666666666667 0
0.6666666666666666 0.6666666666666666 0
2 6 0 4
53
54
55
56
0.3333333333333334 0.3333333333333334 0.5
0.6666666666666667 0.3333333333333333 0.5
0.3333333333333333 0.6666666666666667 0.5
0.6666666666666666 0.6666666666666666 0.5
2 7 0 0
2 8 0 0
2 9 0 0
2 10 0 0
2 11 0 4
57
58
59
60
0.3333333333333334 0.3333333333333334 0.5
0.6666666666666667 0.3333333333333333 0.5
0.3333333333333333 0.6666666666666667 0.5
0.6666666666666666 0.6666666666666666 0.5
2 12 0 4
61
62
63
64
0.3333333333333334 0.3333333333333334 1
0.6666666666666667 0.3333333333333333 1
0.3333333333333333 0.6666666666666667 1
0.6666666666666666 0.6666666666666666 1
3 1 0 0
3 2 0 0
$EndNodes
$Elements
14 78 1 78
2 1 3 3
1 2 1 17 19 
2 19 17 18 20 
3 20 18 3 4 
2 2 3 3
4 6 23 21 5 
5 23 24 22 21 
6 24 8 7 22 
2 3 3 3
7 2 25 27 1 
8 25 26 28 27 
9 26 6 5 28 
2 4 3 3
10 4 3 31 29 
11 29 31 32 30 
12 30 32 7 8 
2 5 3 9
13 2 19 49 25 
14 25 49 50 26 
15 26 50 23 6 
16 19 20 51 49 
17 49 51 52 50 
18 50 52 24 23 
19 20 4 29 51 
20 51 29 30 52 
21 52 30 8 24 
2 6 3 9
22 1 27 53 17 
23 27 28 54 53 
24 28 5 21 54 
25 17 53 55 18 
26 53 54 56 55 
27 54 21 22 56 
28 18 55 31 3 
29 55 56 32 31 
30 56 22 7 32 
2 7 3 3
31 10 9 33 35 
32 35 33 34 36 
33 36 34 11 12 
2 8 3 3
34 14 39 37 13 
35 39 40 38 37 
36 40 16 15 38 
2 9 3 3
37 10 41 43 9 
38 41 42 44 43 
39 42 14 13 44 
2 10 3 3
40 12 11 47 45 
41 45 47 48 46 
42 46 48 15 16 
2 11 3 9
43 10 35 57 41 
44 41 57 58 42 
45 42 58 39 14 
46 35 36 59 57 
47 57 59 60 58 
48 58 60 40 39 
49 36 12 45 59 
50 59 45 46 60 
51 60 46 16 40 
2 12 3 9
52 9 43 61 33 
53 43 44 62 61 
54 44 13 37 62 
55 33 61 63 34 
56 61 62 64 63 
57 62 37 38 64 
58 34 63 47 11 
59 63 64 48 47 
60 64 38 15 48 
3 1 5 9
61 17 1 2 19 53 27 25 49 
62 53 27 25 49 54 28 26 50 
63 54 28 26 50 21 5 6 23 
64 18 17 19 20 55 53 49 51 
65 55 53 49 51 56 54 50 52 
66 56 54 50 52 22 21 23 24 
67 3 18 20 4 31 55 51 29 
68 31 55 51 29 32 56 52 30 
69 32 56 52 30 7 22 24 8 
3 2 5 9
70 33 9 10 35 61 43 41 57 
71 61 43 41 57 62 44 42 58 
72 62 44 42 58 37 13 14 39 
73 34 33 35 36 63 61 57 59 
74 63 61 57 59 64 62 58 60 
75 64 62 58 60 38 37 39 40 
76 11 34 36 12 47 63 59 45 
77 47 63 59 45 48 64 60 46 
78 48 64 60 46 15 38 40 16 
$EndElements
