$MeshFormat
4.1 0 8
$EndMeshFormat
$PhysicalNames
8
2 3 "bottom"
2 4 "top"
2 5 "left"
2 6 "right"
2 7 "front"
2 8 "back"
3 1 "bottom-layer"
3 2 "top-layer"
$EndPhysicalNames
$Entities
12 20 11 2
1 0 0 0 0 
2 0 0 1 0 
3 0 1 1 0 
4 0 1 0 0 
5 1 0 0 0 
6 1 0 1 0 
7 1 1 1 0 
8 1 1 0 0 
9 0 0 2 0 
10 0 1 2 0 
11 1 0 2 0 
12 1 1 2 0 
1 -1e-07 -1e-07 -9.999999994736442e-08 1e-07 1e-07 1.0000001 0 2 1 -2 
2 -1e-07 -9.999999994736442e-08 0.9999999000000001 1e-07 1.0000001 1.0000001 0 2 2 -3 
3 -1e-07 0.9999999000000001 -9.999999994736442e-08 1e-07 1.0000001 1.0000001 0 2 4 -3 
4 -1e-07 -9.999999994736442e-08 -1e-07 1e-07 1.0000001 1e-07 0 2 1 -4 
5 0.9999999000000001 -1e-07 -9.999999994736442e-08 1.0000001 1e-07 1.0000001 0 2 5 -6 
6 0.9999999000000001 -9.999999994736442e-08 0.9999999000000001 1.0000001 1.0000001 1.0000001 0 2 6 -7 
7 0.9999999000000001 0.9999999000000001 -9.999999994736442e-08 1.0000001 1.0000001 1.0000001 0 2 8 -7 
8 0.9999999000000001 -9.999999994736442e-08 -1e-07 1.0000001 1.0000001 1e-07 0 2 5 -8 
9 -9.999999994736442e-08 -1e-07 -1e-07 1.0000001 1e-07 1e-07 0 2 1 -5 
10 -9.999999994736442e-08 -1e-07 0.9999999000000001 1.0000001 1e-07 1.0000001 0 2 2 -6 
11 -9.999999994736442e-08 0.9999999000000001 -1e-07 1.0000001 1.0000001 1e-07 0 2 4 -8 
12 -9.999999994736442e-08 0.9999999000000001 0.9999999000000001 1.0000001 1.0000001 1.0000001 0 2 3 -7 
13 -1e-07 -1e-07 0.9999999000000001 1e-07 1e-07 2.0000001 0 2 2 -9 
14 -1e-07 -9.999999994736442e-08 1.9999999 1e-07 1.0000001 2.0000001 0 2 9 -10 
15 -1e-07 0.9999999000000001 0.9999999000000001 1e-07 1.0000001 2.0000001 0 2 3 -10 
16 0.9999999000000001 -1e-07 0.9999999000000001 1.0000001 1e-07 2.0000001 0 2 6 -11 
17 0.9999999000000001 -9.999999994736442e-08 1.9999999 1.0000001 1.0000001 2.0000001 0 2 11 -12 
18 0.9999999000000001 0.9999999000000001 0.9999999000000001 1.0000001 1.0000001 2.0000001 0 2 7 -12 
19 -9.999999994736442e-08 -1e-07 1.9999999 1.0000001 1e-07 2.0000001 0 2 9 -11 
20 -9.999999994736442e-08 0.9999999000000001 1.9999999 1.0000001 1.0000001 2.0000001 0 2 10 -12 
1 -1e-07 -9.999999994736442e-08 -9.999999994736442e-08 1e-07 1.0000001 1.0000001 1 5 4 -1 4 3 -2 
2 0.9999999000000001 -9.999999994736442e-08 -9.999999994736442e-08 1.0000001 1.0000001 1.0000001 1 6 4 -5 8 7 -6 
3 -9.999999994736442e-08 -1e-07 -9.999999994736442e-08 1.0000001 1e-07 1.0000001 1 7 4 -9 1 10 -5 
4 -9.999999994736442e-08 0.9999999000000001 -9.999999994736442e-08 1.0000001 1.0000001 1.0000001 1 8 4 -11 3 12 -7 
5 -9.999999994736442e-08 -9.999999994736442e-08 -1e-07 1.0000001 1.0000001 1e-07 1 3 4 -4 9 8 -11 
6 -9.999999994736442e-08 -9.999999994736442e-08 0.9999999000000001 1.0000001 1.0000001 1.0000001 0 4 -2 10 6 -12 
7 -1e-07 -9.999999994736442e-08 0.9999999000000001 1e-07 1.0000001 2.0000001 1 5 4 -13 2 15 -14 
8 0.9999999000000001 -9.999999994736442e-08 0.9999999000000001 1.0000001 1.0000001 2.0000001 1 6 4 -16 6 18 -17 
9 -9.999999994736442e-08 -1e-07 0.9999999000000001 1.0000001 1e-07 2.0000001 1 7 4 -10 13 19 -16 
10 -9.999999994736442e-08 0.9999999000000001 0.9999999000000001 1.0000001 1.0000001 2.0000001 1 8 4 -12 15 20 -18 
11 -9.999999994736442e-08 -9.999999994736442e-08 1.9999999 1.0000001 1.0000001 2.0000001 1 4 4 -14 19 17 -20 
1 -9.999999994736442e-08 -9.999999994736442e-08 -9.999999994736442e-08 1.0000001 1.0000001 1.0000001 1 1 6 -1 2 -3 4 -5 6 
2 -9.999999994736442e-08 -9.999999994736442e-08 0.9999999000000001 1.0000001 1.0000001 2.0000001 1 2 6 -7 8 -9 10 -6 11 
$EndEntities
$Nodes
24 12 1 12
0 1 0 1
1
0 0 0
0 2 0 1
2
0 0 1
0 3 0 1
3
0 1 1
0 4 0 1
4
0 1 0
0 5 0 1
5
1 0 0
0 6 0 1
6
1 0 1
0 7 0 1
7
1 1 1
0 8 0 1
8
1 1 0
0 9 0 1
9
0 0 2
0 10 0 1
10
0 1 2
0 11 0 1
11
1 0 2
0 12 0 1
12
1 1 2
2 1 0 0
2 2 0 0
2 3 0 0
2 4 0 0
2 5 0 0
2 7 0 0
2 8 0 0
2 9 0 0
2 10 0 0
2 11 0 0
3 1 0 0
3 2 0 0
$EndNodes
$Elements
12 12 1 12
2 1 3 1
1 1 2 3 4 
2 2 3 1
2 5 8 7 6 
2 3 3 1
3 1 5 6 2 
2 4 3 1
4 4 3 7 8 
2 5 3 1
5 1 4 8 5 
2 7 3 1
6 2 9 10 3 
2 8 3 1
7 6 7 12 11 
2 9 3 1
8 2 6 11 9 
2 10 3 1
9 3 10 12 7 
2 11 3 1
10 9 11 12 10 
3 1 5 1
11 3 2 1 4 7 6 5 8 
3 2 5 1
12 10 9 2 3 12 11 6 7 
$EndElements
