$MeshFormat
4.1 0 8
$EndMeshFormat
$PhysicalNames
8
2 3 "bottom"
2 4 "top"
2 5 "left"
2 6 "right"
2 7 "front"
2 8 "back"
3 1 "bottom-layer"
3 2 "top-layer"
$EndPhysicalNames
$Entities
12 20 11 2
1 0 0 0 0 
2 0 0 1 0 
3 0 1 1 0 
4 0 1 0 0 
5 1 0 0 0 
6 1 0 1 0 
7 1 1 1 0 
8 1 1 0 0 
9 0 0 2 0 
10 0 1 2 0 
11 1 0 2 0 
12 1 1 2 0 
1 -1e-07 -1e-07 -9.999999994736442e-08 1e-07 1e-07 1.0000001 0 2 1 -2 
2 -1e-07 -9.999999994736442e-08 0.9999999000000001 1e-07 1.0000001 1.0000001 0 2 2 -3 
3 -1e-07 0.9999999000000001 -9.999999994736442e-08 1e-07 1.0000001 1.0000001 0 2 4 -3 
4 -1e-07 -9.999999994736442e-08 -1e-07 1e-07 1.0000001 1e-07 0 2 1 -4 
5 0.9999999000000001 -1e-07 -9.999999994736442e-08 1.0000001 1e-07 1.0000001 0 2 5 -6 
6 0.9999999000000001 -9.999999994736442e-08 0.9999999000000001 1.0000001 1.0000001 1.0000001 0 2 6 -7 
7 0.9999999000000001 0.9999999000000001 -9.999999994736442e-08 1.0000001 1.0000001 1.0000001 0 2 8 -7 
8 0.9999999000000001 -9.999999994736442e-08 -1e-07 1.0000001 1.0000001 1e-07 0 2 5 -8 
9 -9.999999994736442e-08 -1e-07 -1e-07 1.0000001 1e-07 1e-07 0 2 1 -5 
10 -9.999999994736442e-08 -1e-07 0.9999999000000001 1.0000001 1e-07 1.0000001 0 2 2 -6 
11 -9.999999994736442e-08 0.9999999000000001 -1e-07 1.0000001 1.0000001 1e-07 0 2 4 -8 
12 -9.999999994736442e-08 0.9999999000000001 0.9999999000000001 1.0000001 1.0000001 1.0000001 0 2 3 -7 
13 -1e-07 -1e-07 0.9999999000000001 1e-07 1e-07 2.0000001 0 2 2 -9 
14 -1e-07 -9.999999994736442e-08 1.9999999 1e-07 1.0000001 2.0000001 0 2 9 -10 
15 -1e-07 0.9999999000000001 0.9999999000000001 1e-07 1.0000001 2.0000001 0 2 3 -10 
16 0.9999999000000001 -1e-07 0.9999999000000001 1.0000001 1e-07 2.0000001 0 2 6 -11 
17 0.9999999000000001 -9.999999994736442e-08 1.9999999 1.0000001 1.0000001 2.0000001 0 2 11 -12 
18 0.9999999000000001 0.9999999000000001 0.9999999000000001 1.0000001 1.0000001 2.0000001 0 2 7 -12 
19 -9.999999994736442e-08 -1e-07 1.9999999 1.0000001 1e-07 2.0000001 0 2 9 -11 
20 -9.999999994736442e-08 0.9999999000000001 1.9999999 1.0000001 1.0000001 2.0000001 0 2 10 -12 
1 -1e-07 -9.999999994736442e-08 -9.999999994736442e-08 1e-07 1.0000001 1.0000001 1 5 4 -1 4 3 -2 
2 0.9999999000000001 -9.999999994736442e-08 -9.999999994736442e-08 1.0000001 1.0000001 1.0000001 1 6 4 -5 8 7 -6 
3 -9.999999994736442e-08 -1e-07 -9.999999994736442e-08 1.0000001 1e-07 1.0000001 1 7 4 -9 1 10 -5 
4 -9.999999994736442e-08 0.9999999000000001 -9.999999994736442e-08 1.0000001 1.0000001 1.0000001 1 8 4 -11 3 12 -7 
5 -9.999999994736442e-08 -9.999999994736442e-08 -1e-07 1.0000001 1.0000001 1e-07 1 3 4 -4 9 8 -11 
6 -9.999999994736442e-08 -9.999999994736442e-08 0.9999999000000001 1.0000001 1.0000001 1.0000001 0 4 -2 10 6 -12 
7 -1e-07 -9.999999994736442e-08 0.9999999000000001 1e-07 1.0000001 2.0000001 1 5 4 -13 2 15 -14 
8 0.9999999000000001 -9.999999994736442e-08 0.9999999000000001 1.0000001 1.0000001 2.0000001 1 6 4 -16 6 18 -17 
9 -9.999999994736442e-08 -1e-07 0.9999999000000001 1.0000001 1e-07 2.0000001 1 7 4 -10 13 19 -16 
10 -9.999999994736442e-08 0.9999999000000001 0.9999999000000001 1.0000001 1.0000001 2.0000001 1 8 4 -12 15 20 -18 
11 -9.999999994736442e-08 -9.999999994736442e-08 1.9999999 1.0000001 1.0000001 2.0000001 1 4 4 -14 19 17 -20 
1 -9.999999994736442e-08 -9.999999994736442e-08 -9.999999994736442e-08 1.0000001 1.0000001 1.0000001 1 1 6 -1 2 -3 4 -5 6 
2 -9.999999994736442e-08 -9.999999994736442e-08 0.9999999000000001 1.0000001 1.0000001 2.0000001 1 2 6 -7 8 -9 10 -6 11 
$EndEntities
$Nodes
45 45 1 45
0 1 0 1
1
0 0 0
0 2 0 1
2
0 0 1
0 3 0 1
3
0 1 1
0 4 0 1
4
0 1 0
0 5 0 1
5
1 0 0
0 6 0 1
6
1 0 1
0 7 0 1
7
1 1 1
0 8 0 1
8
1 1 0
0 9 0 1
9
0 0 2
0 10 0 1
10
0 1 2
0 11 0 1
11
1 0 2
0 12 0 1
12
1 1 2
1 1 0 1
13
0 0 0.4999999999999999
1 2 0 1
14
0 0.4999999999999999 1
1 3 0 1
15
0 1 0.4999999999999999
1 4 0 1
16
0 0.4999999999999999 0
1 5 0 1
17
1 0 0.4999999999999999
1 6 0 1
18
1 0.4999999999999999 1
1 7 0 1
19
1 1 0.4999999999999999
1 8 0 1
20
1 0.4999999999999999 0
1 9 0 1
21
0.4999999999999999 0 0
1 10 0 1
22
0.4999999999999999 0 1
1 11 0 1
23
0.4999999999999999 1 0
1 12 0 1
24
0.4999999999999999 1 1
1 13 0 1
25
0 0 1.5
1 14 0 1
26
0 0.4999999999999999 2
1 15 0 1
27
0 1 1.5
1 16 0 1
28
1 0 1.5
1 17 0 1
29
1 0.4999999999999999 2
1 18 0 1
30
1 1 1.5
1 19 0 1
31
0.4999999999999999 0 2
1 20 0 1
32
0.4999999999999999 1 2
2 1 0 1
33
0 0.5 0.5
2 2 0 1
34
1 0.5 0.5
2 3 0 1
35
0.5 0 0.5
2 4 0 1
36
0.5 1 0.5
2 5 0 1
37
0.5 0.5 0
2 6 0 1
38
0.5 0.5 1
2 7 0 1
39
0 0.5 1.5
2 8 0 1
40
1 0.5 1.5
2 9 0 1
41
0.5 0 1.5
2 10 0 1
42
0.5 1 1.5
2 11 0 1
43
0.5 0.5 2
3 1 0 1
44
0.5 0.5 0.5
3 2 0 1
45
0.5 0.5 1.5
$EndNodes
$Elements
12 32 1 32
2 1 9 2
1 2 4 1 33 16 13 
2 3 4 2 15 33 14 
2 2 9 2
3 6 5 8 17 20 34 
4 7 6 8 18 34 19 
2 3 9 2
5 5 2 1 35 13 21 
6 6 2 5 22 35 17 
2 4 9 2
7 8 4 3 23 15 36 
8 7 8 3 19 36 24 
2 5 9 2
9 4 5 1 37 21 16 
10 8 5 4 20 37 23 
2 7 9 2
11 9 3 2 39 14 25 
12 10 3 9 27 39 26 
2 8 9 2
13 11 6 7 28 18 40 
14 12 11 7 29 40 30 
2 9 9 2
15 6 9 2 41 25 22 
16 11 9 6 31 41 28 
2 10 9 2
17 7 3 10 24 27 42 
18 12 7 10 30 42 32 
2 11 9 2
19 10 9 11 26 31 43 
20 12 10 11 32 43 29 
3 1 11 6
21 4 5 2 1 37 35 33 16 13 21 
22 3 6 8 7 38 34 36 24 19 18 
23 2 8 6 5 44 34 22 35 17 20 
24 3 8 2 4 36 44 14 15 33 23 
25 6 3 8 2 38 36 34 22 44 14 
26 5 4 2 8 37 33 35 20 44 23 
3 2 11 6
27 7 10 11 12 42 43 40 30 29 32 
28 3 11 6 7 45 28 38 24 18 40 
29 10 7 11 3 42 40 43 27 45 24 
30 11 10 3 9 43 27 45 31 39 26 
31 6 9 3 2 41 39 38 22 14 25 
32 9 6 3 11 41 38 39 31 45 28 
$EndElements
