$MeshFormat
4.1 0 8
$EndMeshFormat
$PhysicalNames
14
2 3 "bottom-box-left"
2 4 "bottom-box-right"
2 5 "bottom-box-front"
2 6 "bottom-box-back"
2 7 "bottom-box-bottom"
2 8 "bottom-box-top"
2 9 "top-box-left"
2 10 "top-box-right"
2 11 "top-box-front"
2 12 "top-box-back"
2 13 "top-box-bottom"
2 14 "top-box-top"
3 1 "bottom-box"
3 2 "top-box"
$EndPhysicalNames
$Entities
16 24 12 2
1 0 0 0.5 0 
2 0 0 0 0 
3 0 1 0.5 0 
4 0 1 0 0 
5 1 0 0.5 0 
6 1 0 0 0 
7 1 1 0.5 0 
8 1 1 0 0 
9 0 0 1 0 
10 0 0 0.5 0 
11 0 1 1 0 
12 0 1 0.5 0 
13 1 0 1 0 
14 1 0 0.5 0 
15 1 1 1 0 
16 1 1 0.5 0 
1 -1e-07 -1e-07 -9.999999997511999e-08 1e-07 1e-07 0.5000000999999999 0 2 2 -1 
2 -1e-07 -9.999999994736442e-08 0.4999999 1e-07 1.0000001 0.5000000999999999 0 2 1 -3 
3 -1e-07 0.9999999000000001 -9.999999997511999e-08 1e-07 1.0000001 0.5000000999999999 0 2 4 -3 
4 -1e-07 -9.999999994736442e-08 -1e-07 1e-07 1.0000001 1e-07 0 2 2 -4 
5 0.9999999000000001 -1e-07 -9.999999997511999e-08 1.0000001 1e-07 0.5000000999999999 0 2 6 -5 
6 0.9999999000000001 -9.999999994736442e-08 0.4999999 1.0000001 1.0000001 0.5000000999999999 0 2 5 -7 
7 0.9999999000000001 0.9999999000000001 -9.999999997511999e-08 1.0000001 1.0000001 0.5000000999999999 0 2 8 -7 
8 0.9999999000000001 -9.999999994736442e-08 -1e-07 1.0000001 1.0000001 1e-07 0 2 6 -8 
9 -9.999999994736442e-08 -1e-07 -1e-07 1.0000001 1e-07 1e-07 0 2 2 -6 
10 -9.999999994736442e-08 -1e-07 0.4999999 1.0000001 1e-07 0.5000000999999999 0 2 1 -5 
11 -9.999999994736442e-08 0.9999999000000001 -1e-07 1.0000001 1.0000001 1e-07 0 2 4 -8 
12 -9.999999994736442e-08 0.9999999000000001 0.4999999 1.0000001 1.0000001 0.5000000999999999 0 2 3 -7 
13 -1e-07 -1e-07 0.4999999 1e-07 1e-07 1.0000001 0 2 10 -9 
14 -1e-07 -9.999999994736442e-08 0.9999999000000001 1e-07 1.0000001 1.0000001 0 2 9 -11 
15 -1e-07 0.9999999000000001 0.4999999 1e-07 1.0000001 1.0000001 0 2 12 -11 
16 -1e-07 -9.999999994736442e-08 0.4999999 1e-07 1.0000001 0.5000000999999999 0 2 10 -12 
17 0.9999999000000001 -1e-07 0.4999999 1.0000001 1e-07 1.0000001 0 2 14 -13 
18 0.9999999000000001 -9.999999994736442e-08 0.9999999000000001 1.0000001 1.0000001 1.0000001 0 2 13 -15 
19 0.9999999000000001 0.9999999000000001 0.4999999 1.0000001 1.0000001 1.0000001 0 2 16 -15 
20 0.9999999000000001 -9.999999994736442e-08 0.4999999 1.0000001 1.0000001 0.5000000999999999 0 2 14 -16 
21 -9.999999994736442e-08 -1e-07 0.4999999 1.0000001 1e-07 0.5000000999999999 0 2 10 -14 
22 -9.999999994736442e-08 -1e-07 0.9999999000000001 1.0000001 1e-07 1.0000001 0 2 9 -13 
23 -9.999999994736442e-08 0.9999999000000001 0.4999999 1.0000001 1.0000001 0.5000000999999999 0 2 12 -16 
24 -9.999999994736442e-08 0.9999999000000001 0.9999999000000001 1.0000001 1.0000001 1.0000001 0 2 11 -15 
1 -1e-07 -9.999999994736442e-08 -9.999999997511999e-08 1e-07 1.0000001 0.5000000999999999 1 3 4 -1 4 3 -2 
2 0.9999999000000001 -9.999999994736442e-08 -9.999999997511999e-08 1.0000001 1.0000001 0.5000000999999999 1 4 4 -5 8 7 -6 
3 -9.999999994736442e-08 -1e-07 -9.999999997511999e-08 1.0000001 1e-07 0.5000000999999999 1 5 4 -9 1 10 -5 
4 -9.999999994736442e-08 0.9999999000000001 -9.999999997511999e-08 1.0000001 1.0000001 0.5000000999999999 1 6 4 -11 3 12 -7 
5 -9.999999994736442e-08 -9.999999994736442e-08 -1e-07 1.0000001 1.0000001 1e-07 1 7 4 -4 9 8 -11 
6 -9.999999994736442e-08 -9.999999994736442e-08 0.4999999 1.0000001 1.0000001 0.5000000999999999 1 8 4 -2 10 6 -12 
7 -1e-07 -9.999999994736442e-08 0.4999999 1e-07 1.0000001 1.0000001 1 9 4 -13 16 15 -14 
8 0.9999999000000001 -9.999999994736442e-08 0.4999999 1.0000001 1.0000001 1.0000001 1 10 4 -17 20 19 -18 
9 -9.999999994736442e-08 -1e-07 0.4999999 1.0000001 1e-07 1.0000001 1 11 4 -21 13 22 -17 
10 -9.999999994736442e-08 0.9999999000000001 0.4999999 1.0000001 1.0000001 1.0000001 1 12 4 -23 15 24 -19 
11 -9.999999994736442e-08 -9.999999994736442e-08 0.4999999 1.0000001 1.0000001 0.5000000999999999 1 13 4 -16 21 20 -23 
12 -9.999999994736442e-08 -9.999999994736442e-08 0.9999999000000001 1.0000001 1.0000001 1.0000001 1 14 4 -14 22 18 -24 
1 -9.999999994736442e-08 -9.999999994736442e-08 -9.999999997511999e-08 1.0000001 1.0000001 0.5000000999999999 1 1 6 -1 2 -3 4 -5 6 
2 -9.999999994736442e-08 -9.999999994736442e-08 0.4999999 1.0000001 1.0000001 1.0000001 1 2 6 -7 8 -9 10 -11 12 
$EndEntities
$Nodes
54 158 1 158
0 1 0 1
1
0 0 0.5
0 2 0 1
2
0 0 0
0 3 0 1
3
0 1 0.5
0 4 0 1
4
0 1 0
0 5 0 1
5
1 0 0.5
0 6 0 1
6
1 0 0
0 7 0 1
7
1 1 0.5
0 8 0 1
8
1 1 0
0 9 0 1
9
0 0 1
0 10 0 1
10
0 0 0.5
0 11 0 1
11
0 1 1
0 12 0 1
12
0 1 0.5
0 13 0 1
13
1 0 1
0 14 0 1
14
1 0 0.5
0 15 0 1
15
1 1 1
0 16 0 1
16
1 1 0.5
1 1 0 1
17
0 0 0.25
1 2 0 3
18
19
20
0 0.5 0.5
0 0.25 0.5
0 0.75 0.5
1 3 0 1
21
0 1 0.25
1 4 0 3
22
23
24
0 0.5 0
0 0.25 0
0 0.75 0
1 5 0 1
25
1 0 0.25
1 6 0 3
26
27
28
1 0.5 0.5
1 0.25 0.5
1 0.75 0.5
1 7 0 1
29
1 1 0.25
1 8 0 3
30
31
32
1 0.5 0
1 0.25 0
1 0.75 0
1 9 0 3
33
34
35
0.5 0 0
0.25 0 0
0.75 0 0
1 10 0 3
36
37
38
0.5 0 0.5
0.25 0 0.5
0.75 0 0.5
1 11 0 3
39
40
41
0.5 1 0
0.25 1 0
0.75 1 0
1 12 0 3
42
43
44
0.5 1 0.5
0.25 1 0.5
0.75 1 0.5
1 13 0 1
45
0 0 0.75
1 14 0 3
46
47
48
0 0.5 1
0 0.25 1
0 0.75 1
1 15 0 1
49
0 1 0.75
1 16 0 3
50
51
52
0 0.5 0.5
0 0.25 0.5
0 0.75 0.5
1 17 0 1
53
1 0 0.75
1 18 0 3
54
55
56
1 0.5 1
1 0.25 1
1 0.75 1
1 19 0 1
57
1 1 0.75
1 20 0 3
58
59
60
1 0.5 0.5
1 0.25 0.5
1 0.75 0.5
1 21 0 3
61
62
63
0.5 0 0.5
0.25 0 0.5
0.75 0 0.5
1 22 0 3
64
65
66
0.5 0 1
0.25 0 1
0.75 0 1
1 23 0 3
67
68
69
0.5 1 0.5
0.25 1 0.5
0.75 1 0.5
1 24 0 3
70
71
72
0.5 1 1
0.25 1 1
0.75 1 1
2 1 0 3
73
74
75
0 0.25 0.25
0 0.5 0.25
0 0.75 0.25
2 2 0 3
76
77
78
1 0.25 0.25
1 0.5 0.25
1 0.75 0.25
2 3 0 3
79
80
81
0.25 0 0.25
0.5 0 0.25
0.75 0 0.25
2 4 0 3
82
83
84
0.25 1 0.25
0.5 1 0.25
0.75 1 0.25
2 5 0 9
85
86
87
88
89
90
91
92
93
0.4 0.6000000000000001 0
0.25 0.25 0
0.2 0.8 0
0.2 0.55 0
0.45 0.8 0
0.75 0.25 0
0.75 0.75 0
0.45 0.3 0
0.7 0.55 0
2 6 0 9
94
95
96
97
98
99
100
101
102
0.4 0.6000000000000001 0.5
0.25 0.25 0.5
0.2 0.55 0.5
0.2 0.8 0.5
0.45 0.8 0.5
0.75 0.25 0.5
0.75 0.75 0.5
0.45 0.3 0.5
0.7 0.55 0.5
2 7 0 3
103
104
105
0 0.25 0.75
0 0.5 0.75
0 0.75 0.75
2 8 0 3
106
107
108
1 0.25 0.75
1 0.5 0.75
1 0.75 0.75
2 9 0 3
109
110
111
0.25 0 0.75
0.5 0 0.75
0.75 0 0.75
2 10 0 3
112
113
114
0.25 1 0.75
0.5 1 0.75
0.75 1 0.75
2 11 0 9
115
116
117
118
119
120
121
122
123
0.4 0.6000000000000001 0.5
0.25 0.25 0.5
0.2 0.8 0.5
0.2 0.55 0.5
0.45 0.8 0.5
0.75 0.25 0.5
0.75 0.75 0.5
0.45 0.3 0.5
0.7 0.55 0.5
2 12 0 9
124
125
126
127
128
129
130
131
132
0.4 0.6000000000000001 1
0.25 0.25 1
0.2 0.55 1
0.2 0.8 1
0.45 0.8 1
0.75 0.25 1
0.75 0.75 1
0.45 0.3 1
0.7 0.55 1
3 1 0 9
133
134
135
136
137
138
139
140
141
0.4 0.6000000000000001 0.25
0.45 0.3 0.25
0.7 0.55 0.25
0.75 0.75 0.25
0.45 0.8 0.25
0.25 0.25 0.25
0.2 0.55 0.25
0.75 0.25 0.25
0.2 0.8 0.25
3 2 0 17
142
143
144
145
146
147
148
149
150
151
152
153
154
155
156
157
158
0.1666666666666667 0.1666666666666666 0.7499999999999999
0.08333333333333333 0.3333333333333333 0.625
0.08333333333333333 0.08333333333333331 0.625
0.08333333333333333 0.3333333333333333 0.875
0.08333333333333333 0.08333333333333331 0.875
0.3333333333333333 0.08333333333333331 0.625
0.3333333333333333 0.08333333333333331 0.875
0.4 0.6000000000000001 0.75
0.45 0.3 0.75
0.7 0.55 0.75
0.45 0.8 0.75
0.75 0.25 0.75
0.75 0.75 0.75
0.2 0.8 0.75
0.2 0.55 0.75
0.2833333333333333 0.3833333333333334 0.875
0.2833333333333333 0.3833333333333334 0.625
$EndNodes
$Elements
14 118 1 118
2 1 9 4
1 18 2 1 73 17 19 
2 18 22 2 74 23 73 
3 22 3 4 75 21 24 
4 3 22 18 75 74 20 
2 2 9 4
5 26 5 6 27 25 76 
6 26 6 30 76 31 77 
7 30 8 7 32 29 78 
8 7 26 30 28 77 78 
2 3 9 4
9 33 1 2 79 17 34 
10 36 1 33 37 79 80 
11 5 33 6 81 35 25 
12 5 36 33 38 80 81 
2 4 9 4
13 39 4 3 40 21 82 
14 42 39 3 83 82 43 
15 7 8 39 29 41 84 
16 7 39 42 84 83 44 
2 5 9 8
17 22 33 2 86 34 23 
18 22 4 85 24 87 88 
19 4 39 85 40 89 87 
20 33 30 6 90 31 35 
21 30 39 8 91 41 32 
22 33 22 85 86 88 92 
23 30 33 85 90 92 93 
24 39 30 85 91 93 89 
2 6 9 8
25 18 1 36 19 37 95 
26 18 94 3 96 97 20 
27 3 94 42 97 98 43 
28 36 5 26 38 27 99 
29 26 7 42 28 44 100 
30 36 94 18 101 96 95 
31 26 94 36 102 101 99 
32 42 94 26 98 102 100 
2 7 9 4
33 46 10 9 103 45 47 
34 46 50 10 104 51 103 
35 50 11 12 105 49 52 
36 11 50 46 105 104 48 
2 8 9 4
37 54 13 14 55 53 106 
38 54 14 58 106 59 107 
39 58 16 15 60 57 108 
40 15 54 58 56 107 108 
2 9 9 4
41 61 9 10 109 45 62 
42 64 9 61 65 109 110 
43 13 61 14 111 63 53 
44 13 64 61 66 110 111 
2 10 9 4
45 67 12 11 68 49 112 
46 70 67 11 113 112 71 
47 15 16 67 57 69 114 
48 15 67 70 114 113 72 
2 11 9 8
49 50 61 10 116 62 51 
50 50 12 115 52 117 118 
51 12 67 115 68 119 117 
52 61 58 14 120 59 63 
53 58 67 16 121 69 60 
54 61 50 115 116 118 122 
55 58 61 115 120 122 123 
56 67 58 115 121 123 119 
2 12 9 8
57 46 9 64 47 65 125 
58 46 124 11 126 127 48 
59 11 124 70 127 128 71 
60 64 13 54 66 55 129 
61 54 15 70 56 72 130 
62 64 124 46 131 126 125 
63 54 124 64 132 131 129 
64 70 124 54 128 132 130 
3 1 11 24
65 33 85 94 30 92 133 134 90 135 93 
66 39 7 30 8 84 78 91 41 32 29 
67 30 94 42 85 135 98 136 93 137 133 
68 94 85 33 18 133 92 134 96 138 139 
69 33 26 30 94 140 77 90 134 135 102 
70 33 26 94 36 140 102 134 80 101 99 
71 85 22 33 18 88 86 92 139 138 74 
72 18 33 94 36 138 134 96 95 101 80 
73 94 30 42 26 135 136 98 102 100 77 
74 85 39 42 30 89 83 137 93 136 91 
75 22 2 33 18 23 34 86 74 138 73 
76 5 26 33 36 27 140 81 38 80 99 
77 18 2 33 1 73 34 138 19 79 17 
78 33 18 1 36 138 19 79 80 37 95 
79 7 30 26 42 78 77 28 44 100 136 
80 7 39 30 42 84 91 78 44 136 83 
81 26 6 33 30 76 35 140 77 90 31 
82 6 26 33 5 76 140 35 25 81 27 
83 22 3 85 4 75 141 88 24 87 21 
84 3 39 85 4 82 89 141 21 87 40 
85 42 3 85 94 43 141 137 98 133 97 
86 94 3 85 18 97 141 133 96 139 20 
87 39 3 85 42 82 141 89 83 137 43 
88 3 22 85 18 75 88 141 20 139 74 
3 2 11 30
89 50 46 10 142 104 103 51 143 144 145 
90 10 46 9 142 103 47 45 144 146 145 
91 10 9 61 142 45 109 62 144 147 146 
92 61 9 64 142 109 65 110 147 148 146 
93 115 124 64 54 149 131 150 151 129 132 
94 67 15 58 16 114 108 121 69 60 57 
95 115 54 70 124 151 130 152 149 128 132 
96 54 61 115 58 153 122 151 107 123 120 
97 61 54 115 64 153 151 122 110 150 129 
98 54 115 70 58 151 152 130 107 154 123 
99 70 115 67 58 152 119 113 154 121 123 
100 15 67 58 70 114 121 108 72 154 113 
101 14 54 61 13 106 153 63 53 111 55 
102 15 54 70 58 56 130 72 108 154 107 
103 61 54 64 13 153 129 110 111 66 55 
104 14 54 58 61 106 107 59 63 120 153 
105 64 9 46 142 65 47 125 148 145 146 
106 11 115 50 12 155 118 105 49 52 117 
107 115 12 11 67 117 49 155 119 112 68 
108 10 61 50 142 62 116 51 144 143 147 
109 115 11 50 124 155 105 118 149 156 127 
110 115 70 11 124 152 71 155 149 127 128 
111 124 11 50 46 127 105 156 126 104 48 
112 70 115 11 67 152 155 71 113 112 119 
113 142 46 124 50 145 126 157 143 156 104 
114 142 124 46 64 157 126 145 148 125 131 
115 115 142 124 50 158 157 149 118 156 143 
116 115 124 142 64 149 157 158 150 148 131 
117 61 142 115 50 147 158 122 116 118 143 
118 61 115 142 64 122 158 147 110 148 150 
$EndElements
