$MeshFormat
4.1 0 8
$EndMeshFormat
$PhysicalNames
14
2 3 "bottom-box-left"
2 4 "bottom-box-right"
2 5 "bottom-box-front"
2 6 "bottom-box-back"
2 7 "bottom-box-bottom"
2 8 "bottom-box-top"
2 9 "top-box-left"
2 10 "top-box-right"
2 11 "top-box-front"
2 12 "top-box-back"
2 13 "top-box-bottom"
2 14 "top-box-top"
3 1 "bottom-box"
3 2 "top-box"
$EndPhysicalNames
$Entities
16 24 12 2
1 0 0 0.5 0 
2 0 0 0 0 
3 0 1 0.5 0 
4 0 1 0 0 
5 1 0 0.5 0 
6 1 0 0 0 
7 1 1 0.5 0 
8 1 1 0 0 
9 0 0 1 0 
10 0 0 0.5 0 
11 0 1 1 0 
12 0 1 0.5 0 
13 1 0 1 0 
14 1 0 0.5 0 
15 1 1 1 0 
16 1 1 0.5 0 
1 -1e-07 -1e-07 -9.999999997511999e-08 1e-07 1e-07 0.5000000999999999 0 2 2 -1 
2 -1e-07 -9.999999994736442e-08 0.4999999 1e-07 1.0000001 0.5000000999999999 0 2 1 -3 
3 -1e-07 0.9999999000000001 -9.999999997511999e-08 1e-07 1.0000001 0.5000000999999999 0 2 4 -3 
4 -1e-07 -9.999999994736442e-08 -1e-07 1e-07 1.0000001 1e-07 0 2 2 -4 
5 0.9999999000000001 -1e-07 -9.999999997511999e-08 1.0000001 1e-07 0.5000000999999999 0 2 6 -5 
6 0.9999999000000001 -9.999999994736442e-08 0.4999999 1.0000001 1.0000001 0.5000000999999999 0 2 5 -7 
7 0.9999999000000001 0.9999999000000001 -9.999999997511999e-08 1.0000001 1.0000001 0.5000000999999999 0 2 8 -7 
8 0.9999999000000001 -9.999999994736442e-08 -1e-07 1.0000001 1.0000001 1e-07 0 2 6 -8 
9 -9.999999994736442e-08 -1e-07 -1e-07 1.0000001 1e-07 1e-07 0 2 2 -6 
10 -9.999999994736442e-08 -1e-07 0.4999999 1.0000001 1e-07 0.5000000999999999 0 2 1 -5 
11 -9.999999994736442e-08 0.9999999000000001 -1e-07 1.0000001 1.0000001 1e-07 0 2 4 -8 
12 -9.999999994736442e-08 0.9999999000000001 0.4999999 1.0000001 1.0000001 0.5000000999999999 0 2 3 -7 
13 -1e-07 -1e-07 0.4999999 1e-07 1e-07 1.0000001 0 2 10 -9 
14 -1e-07 -9.999999994736442e-08 0.9999999000000001 1e-07 1.0000001 1.0000001 0 2 9 -11 
15 -1e-07 0.9999999000000001 0.4999999 1e-07 1.0000001 1.0000001 0 2 12 -11 
16 -1e-07 -9.999999994736442e-08 0.4999999 1e-07 1.0000001 0.5000000999999999 0 2 10 -12 
17 0.9999999000000001 -1e-07 0.4999999 1.0000001 1e-07 1.0000001 0 2 14 -13 
18 0.9999999000000001 -9.999999994736442e-08 0.9999999000000001 1.0000001 1.0000001 1.0000001 0 2 13 -15 
19 0.9999999000000001 0.9999999000000001 0.4999999 1.0000001 1.0000001 1.0000001 0 2 16 -15 
20 0.9999999000000001 -9.999999994736442e-08 0.4999999 1.0000001 1.0000001 0.5000000999999999 0 2 14 -16 
21 -9.999999994736442e-08 -1e-07 0.4999999 1.0000001 1e-07 0.5000000999999999 0 2 10 -14 
22 -9.999999994736442e-08 -1e-07 0.9999999000000001 1.0000001 1e-07 1.0000001 0 2 9 -13 
23 -9.999999994736442e-08 0.9999999000000001 0.4999999 1.0000001 1.0000001 0.5000000999999999 0 2 12 -16 
24 -9.999999994736442e-08 0.9999999000000001 0.9999999000000001 1.0000001 1.0000001 1.0000001 0 2 11 -15 
1 -1e-07 -9.999999994736442e-08 -9.999999997511999e-08 1e-07 1.0000001 0.5000000999999999 1 3 4 -1 4 3 -2 
2 0.9999999000000001 -9.999999994736442e-08 -9.999999997511999e-08 1.0000001 1.0000001 0.5000000999999999 1 4 4 -5 8 7 -6 
3 -9.999999994736442e-08 -1e-07 -9.999999997511999e-08 1.0000001 1e-07 0.5000000999999999 1 5 4 -9 1 10 -5 
4 -9.999999994736442e-08 0.9999999000000001 -9.999999997511999e-08 1.0000001 1.0000001 0.5000000999999999 1 6 4 -11 3 12 -7 
5 -9.999999994736442e-08 -9.999999994736442e-08 -1e-07 1.0000001 1.0000001 1e-07 1 7 4 -4 9 8 -11 
6 -9.999999994736442e-08 -9.999999994736442e-08 0.4999999 1.0000001 1.0000001 0.5000000999999999 1 8 4 -2 10 6 -12 
7 -1e-07 -9.999999994736442e-08 0.4999999 1e-07 1.0000001 1.0000001 1 9 4 -13 16 15 -14 
8 0.9999999000000001 -9.999999994736442e-08 0.4999999 1.0000001 1.0000001 1.0000001 1 10 4 -17 20 19 -18 
9 -9.999999994736442e-08 -1e-07 0.4999999 1.0000001 1e-07 1.0000001 1 11 4 -21 13 22 -17 
10 -9.999999994736442e-08 0.9999999000000001 0.4999999 1.0000001 1.0000001 1.0000001 1 12 4 -23 15 24 -19 
11 -9.999999994736442e-08 -9.999999994736442e-08 0.4999999 1.0000001 1.0000001 0.5000000999999999 1 13 4 -16 21 20 -23 
12 -9.999999994736442e-08 -9.999999994736442e-08 0.9999999000000001 1.0000001 1.0000001 1.0000001 1 14 4 -14 22 18 -24 
1 -9.999999994736442e-08 -9.999999994736442e-08 -9.999999997511999e-08 1.0000001 1.0000001 0.5000000999999999 1 1 6 -1 2 -3 4 -5 6 
2 -9.999999994736442e-08 -9.999999994736442e-08 0.4999999 1.0000001 1.0000001 1.0000001 1 2 6 -7 8 -9 10 -11 12 
$EndEntities
$Nodes
46 37 1 37
0 1 0 1
1
0 0 0.5
0 2 0 1
2
0 0 0
0 3 0 1
3
0 1 0.5
0 4 0 1
4
0 1 0
0 5 0 1
5
1 0 0.5
0 6 0 1
6
1 0 0
0 7 0 1
7
1 1 0.5
0 8 0 1
8
1 1 0
0 9 0 1
9
0 0 1
0 10 0 1
10
0 0 0.5
0 11 0 1
11
0 1 1
0 12 0 1
12
0 1 0.5
0 13 0 1
13
1 0 1
0 14 0 1
14
1 0 0.5
0 15 0 1
15
1 1 1
0 16 0 1
16
1 1 0.5
1 2 0 1
17
0 0.5 0.5
1 4 0 1
18
0 0.5 0
1 6 0 1
19
1 0.5 0.5
1 8 0 1
20
1 0.5 0
1 9 0 1
21
0.5 0 0
1 10 0 1
22
0.5 0 0.5
1 11 0 1
23
0.5 1 0
1 12 0 1
24
0.5 1 0.5
1 14 0 1
25
0 0.5 1
1 16 0 1
26
0 0.5 0.5
1 18 0 1
27
1 0.5 1
1 20 0 1
28
1 0.5 0.5
1 21 0 1
29
0.5 0 0.5
1 22 0 1
30
0.5 0 1
1 23 0 1
31
0.5 1 0.5
1 24 0 1
32
0.5 1 1
2 1 0 0
2 2 0 0
2 3 0 0
2 4 0 0
2 5 0 1
33
0.4 0.6000000000000001 0
2 6 0 1
34
0.4 0.6000000000000001 0.5
2 7 0 0
2 8 0 0
2 9 0 0
2 10 0 0
2 11 0 1
35
0.4 0.6000000000000001 0.5
2 12 0 1
36
0.4 0.6000000000000001 1
3 1 0 0
3 2 0 1
37
0.1666666666666667 0.1666666666666666 0.7499999999999999
$EndNodes
$Elements
14 118 1 118
2 1 2 4
1 17 2 1 
2 17 18 2 
3 18 3 4 
4 3 18 17 
2 2 2 4
5 19 5 6 
6 19 6 20 
7 20 8 7 
8 7 19 20 
2 3 2 4
9 21 1 2 
10 22 1 21 
11 5 21 6 
12 5 22 21 
2 4 2 4
13 23 4 3 
14 24 23 3 
15 7 8 23 
16 7 23 24 
2 5 2 8
17 18 21 2 
18 18 4 33 
19 4 23 33 
20 21 20 6 
21 20 23 8 
22 21 18 33 
23 20 21 33 
24 23 20 33 
2 6 2 8
25 17 1 22 
26 17 34 3 
27 3 34 24 
28 22 5 19 
29 19 7 24 
30 22 34 17 
31 19 34 22 
32 24 34 19 
2 7 2 4
33 25 10 9 
34 25 26 10 
35 26 11 12 
36 11 26 25 
2 8 2 4
37 27 13 14 
38 27 14 28 
39 28 16 15 
40 15 27 28 
2 9 2 4
41 29 9 10 
42 30 9 29 
43 13 29 14 
44 13 30 29 
2 10 2 4
45 31 12 11 
46 32 31 11 
47 15 16 31 
48 15 31 32 
2 11 2 8
49 26 29 10 
50 26 12 35 
51 12 31 35 
52 29 28 14 
53 28 31 16 
54 29 26 35 
55 28 29 35 
56 31 28 35 
2 12 2 8
57 25 9 30 
58 25 36 11 
59 11 36 32 
60 30 13 27 
61 27 15 32 
62 30 36 25 
63 27 36 30 
64 32 36 27 
3 1 4 24
65 21 33 34 20 
66 23 7 20 8 
67 20 34 24 33 
68 34 33 21 17 
69 21 19 20 34 
70 21 19 34 22 
71 33 18 21 17 
72 17 21 34 22 
73 34 20 24 19 
74 33 23 24 20 
75 18 2 21 17 
76 5 19 21 22 
77 17 2 21 1 
78 21 17 1 22 
79 7 20 19 24 
80 7 23 20 24 
81 19 6 21 20 
82 6 19 21 5 
83 18 3 33 4 
84 3 23 33 4 
85 24 3 33 34 
86 34 3 33 17 
87 23 3 33 24 
88 3 18 33 17 
3 2 4 30
89 26 25 10 37 
90 10 25 9 37 
91 10 9 29 37 
92 29 9 30 37 
93 35 36 30 27 
94 31 15 28 16 
95 35 27 32 36 
96 27 29 35 28 
97 29 27 35 30 
98 27 35 32 28 
99 32 35 31 28 
100 15 31 28 32 
101 14 27 29 13 
102 15 27 32 28 
103 29 27 30 13 
104 14 27 28 29 
105 30 9 25 37 
106 11 35 26 12 
107 35 12 11 31 
108 10 29 26 37 
109 35 11 26 36 
110 35 32 11 36 
111 36 11 26 25 
112 32 35 11 31 
113 37 25 36 26 
114 37 36 25 30 
115 35 37 36 26 
116 35 36 37 30 
117 29 37 35 26 
118 29 35 37 30 
$EndElements
